/* XPM */
static char *_17e9b9471f04a21f6940f9d1ba10d20wAdS0lCEcG9pPNNQ[] = {
/* columns rows colors chars-per-pixel */
"128 128 83 1 ",
"  c black",
". c gray12",
"X c #2B230F",
"o c #3B2F17",
"O c #232323",
"+ c #2F2F2F",
"@ c gray20",
"# c #373737",
"$ c gray23",
"% c #4B0000",
"& c #570000",
"* c #630000",
"= c #6F0000",
"- c #770000",
"; c #43331B",
": c #4B3B1B",
"> c #573F1F",
", c #5F5F00",
"< c #777700",
"1 c #5F4323",
"2 c #6F4B27",
"3 c #774F2B",
"4 c #434343",
"5 c #4B4B4B",
"6 c gray34",
"7 c #5B5B5B",
"8 c #676767",
"9 c gray45",
"0 c #7B7B7B",
"q c gray50",
"w c #830000",
"e c #8F0000",
"r c #9B0000",
"t c #9F0000",
"y c #A70000",
"u c #B30000",
"i c #BF0000",
"p c #CB0000",
"a c #D70000",
"s c #DF0000",
"d c red",
"f c #9F4F00",
"g c #B75700",
"h c #83532F",
"j c #875333",
"k c #8B5B33",
"l c #935F37",
"z c #9F633B",
"x c #A3673F",
"c c #AB6B43",
"v c #B77347",
"b c #BF7B4B",
"n c #C3774B",
"m c #CB7F4F",
"M c #878700",
"N c #939300",
"B c #9F9F00",
"V c #AFAF00",
"C c #C7C700",
"Z c #D38353",
"A c #DF8B57",
"S c #EB8F5B",
"D c #F3975F",
"F c #FFAB5F",
"G c #FF9F63",
"H c #EBA377",
"J c #FFA773",
"K c gray56",
"L c #9B9B9B",
"P c gray67",
"I c #B7B7B7",
"U c #BBBBBB",
"Y c #FFB383",
"T c #EFBB9B",
"R c #FFBB93",
"E c #FFBF9F",
"W c #FFC7A7",
"Q c #FFCFB3",
"! c #FFD7BF",
"~ c #C3C3C3",
"^ c LightGray",
"/ c #DFDFDF",
"( c #FFDBC7",
/* pixels */
"++++++++++++++++++++++++++++++++++++++++++++++++++++++++++++++++++++++++++++++++++++++++++++++++++++++++++++++++++++++++++++++++",
"++++++++++++++++++++++++++++++++++++++++++++++++++++++++++++++++++++++++++++++++++++++++++++++++++++++++++++++++++++++++++++++++",
"6666666666666666666655OL~//////////////////////////~LOOO$$$$+9L~^^^^^^^^^^^^~~~~Pq6+++OO$455555555555555555566666666666666666666",
"6666666666666666666655L~///~~~~P~P~~PIIPIP~I~~IKKqP/~LOO$$$5L~IPPPLLLLLLLLPLLLLLLq96++OO$555555555555555555566666666666666666666",
"6666666666666666666655~/^~IPP^PPLPPPPPPPPLLLIILLLKqPKKOO$$+L^ILLKKLKKKKKLKLKKLLKLq86$+OO$479qqqqqqqqqqqq998865555555555555555555",
"5555555555666666666655CCCCCCCCCCCCCCCCCCCCCCCCCCCCCCCCCCCCCCCCCCCCCCCCCCCCCCCCCCCCCCCCCCCCCCCCCCCCCCCCCCC<9988655555555555555555",
"qqqqqqqqqqqqqq66556655N<<<<<<<<<<<<<<<<<<<<<<<<<<<<<<<<<<<<<<<<<<<<<<<<<<<<<<<<<<<<<<<<<<<<<<<<<<<<<<<<<N<9IPPPPLPLPLLLKqqqqqqqq",
"IIIIIIIIIPPLLKq6$56655N<,,,,,,,,,,,,,,,,,,,,,,,,,,,,,,,,,,,,,,,,,,,,,,,,,,,,,,,,,,,,,,,,,,,,,,,,,,,,,,,NB<q~~~~~IIPPIIIIIIIIIIII",
"~~~~~~~~IIPLLLq8$56655N<,$$$$$$$$$$$$$$$$$$$$$$$$$$$$$$$$$$$$$$$$$$$$$$$$4$$$$$$$$$$$$$$$$$$$$$$$$$$$$$VB<K///////^^^^^^^^^^^^^^",
"~~~~~~~~~~PPKK98$$5655N<,766666767766667676767766776667776766777677667666666767666667677666676767677666CB<0~~~~~~~~~~~~~~~~~~~~~",
"KKKPLKLLLLPPKq96$$5655N<,809088099889899090898899890q97899980998989999099800988090880998898990908988999CB<8LPLKLKPKLKLPLKLKLLLLL",
"KqKKKKKLKLPPKq96$$4655N<,799800898009089989989890998880909998999808998988099998998008980090899899898909CB<6PLPLLPKKLLKLKKLLPKPLL",
"PqPLqKKKKKKPKq96$$4555N<,8980809809989009000q90980877766544$$$$$$$6788999990000980809809989009000q90989CB<7KLLKLKLLKPLLLPPLKLPPP",
"qKKLqLKLqLLPq986O$$555N<,880098999889099899888997677655554$$$++OOOO##$690888999800989998890998998889909CB<7LKLLPKPPKLLLKLKKKPLPP",
"LqPqKKLKqKLL9865O+@$55N<,889889998999888q8908976666886666655$##+++++OO#$690899989889998999888q890899999CB<8LLLLKPKKLKPLLKLKPKKLL",
"KLqKKKKqKPKK9864O+@$55N<,8999989898898098989776680K08886676654$$$$##+OOOO$69899999989898898098989908809CB<7LPKPKLPLKKLLKLKLKLKKL",
"qKqKqKqKKqKK8654O+++55N<,8099898989999999996660L0L0886668786654$$$$555$##+O$689099898989999999998989089CB<8PLKLLKKLKLqKLKqKKKLKK",
"LLKKKPKPKKLq8654O+++55N<,798998990988889889699K09886768868866654$$$5665$$#OOO$6989989909888898899999999CB<7KLKKLPLKKLKLKqKKLKKqK",
"KKKqKLLKKLK9655$O+++55N<,8909908988q9999097777669866668877886665$$5666655$+OOOO609908988q99990999999809CB<7PKKKKKKLLqLLqLqKKKqLq",
"KqPKPKLLqq9865$+O+++55N<,89988909908099899bASbbl6766778866688665$$6677646$#+OOOO68890990809989980899989CB<7LLLKKKLKqKqKLqqqKqLqK",
"9K9q999966554$+OO+++55N<,899q9980808999080QTYHGSb676666876699666O$66868$44$#OOOOO6998080899908008999099CB<6KKKKqKqKqqKqqK9K9q9K8",
"988888886544$+OOO+++55N<,8098999898088089H!!QHJZAb6451:666999965O@88868$65$#@OOOO$999898088089899089899CB<6qq99q9q98q9q9q9898989",
"6666655554@+OOOOO+++45N<,8890989998999999Q(QTRYJFAv62kk176899865O$88999@64#++OOOOO689998999999909809909CB<4866666666668686565565",
"5444$$$$$@+OOOOO++++45N<,889999999080898E(WQWRWEJFA6hck366668665O@66868@@#O+O+OOOO$99990808989080980999CB<4665555665565655555555",
"++++OOOOOOOO++++@@$$56N<,89898999899890K!!TRWWTRRJSmcSZl$4555644OO$5665$++O+O+OOOOO999899890q9988998889CB<+5$$$$$$$$$$++++++++++",
"OOOOOOOOO++++++@@@$$56N<,8098q989999008EW!WWWRWEHGGSZSGl$$455464OO@$555$@+OOOOOOOOO98999900898009989989CB<O$$$$+++++++++++++++++",
"++++++++++++++++@@$$56N<,88008999998789Q!WRWTWWERGSAASSx$$$55564OO@$$$$$++OOOOOOOOO99999878980889809909CB<O###++OOOOOOOOOOOOOOOO",
"++++++++++++++++@@$$56N<,8989990898009RQQQWWEEWHGDSSGFDc$$$$44$$O:$$4@$#+OOOOOOOOOO90898009089999998889CB<.+++++++OOOOOOOOOOOOOO",
"$$$$$$$$$$$$$$$$$$$$56N<,8099988099899QZbDWWWWRYGFGSFADv$$$$4$$$O:@$$4#+OOOOOOOOOOO88999899898999099999CB<.+++$$$$$$$$$$$$$$$$$$",
"$$$$$$$$$$$$$$$$$$$$56N<,8988099999999kXOlZGHTHFFDFFGJGb3333333332$$$O+OOOOOOOOOOO$99999999800899888909CB<O$$$$$$$$$$$$$$$$$$$$$",
"6544$$$$$$$$$$$$$$$$56N<,88088999999899OOkSGFRRFSFDFJGRbbvcvbbbvbZl3:OOOOOOOOOOOOO499999989989899000989CB<+444445555555555555555",
"66666666655555$$$$$$45N<,78800998889989k: zAAHTYGFYDHRJHFFFSFDbGZbcc3:OOOOOOOOOOO$799888998999088988999CB<+555555555555555555555",
"LLLLLKKKKKq9888886$@@$N<,80989999q9808SlkObzbGWEHHJRERGJSGSSZDSZWWYAh3;OOOOOOOOO$6999999808088990889989CB<7LLLLLLLLLLLLLLLLLLLLL",
"IIIIIIIIIPPLLLLKq8+++@N<,889899908098LRz13ZcGSRYWEHRYDYGGSZSDZDWJZZGZ21OOOOOOOOO589990809808889889899q9CB<9IIIIIIIIIIIIIIIIIIIII",
"///////////^IPLKq8$@+@N<,89908999088LWJcZ2mGWWEETWWHYYGDSZGZZZSGcAJHD11oOOOOOOO480899908880909890999989CB<K/////////////////////",
"~~~~~~~~UU~UIPKq98$@+@N<,6989089890LWJSbSRGHR!QWTTYRGSSAAZbZbSSl11cJD1:;OOOOOOO689089890008998098809989CB<q~~~~~~~~~~~~~~~~~~~~~",
"IPIIIPPPPLPLKLq998$@O@N<,8909899988QRGAbvHWW!!!QWYYJGFADZAZbSbZzcj3JZ1:;OOOOOO$909899988889980890988009CB<0IIIPPPPPIIPPIIIIPIIII",
"IPPPPPPPPLPKLKq998$@O@N<,8009999989JJFZSzAY!!!QTJJGGSSDbSZZAZZZbcSbJb;::;OOOOO600999998999080809099q899CB<9PPPPPPIPIPPPPPPIPPPPP",
"KLLPKKKLKPPKPLq998$@O@N<,889099990999zvlcbGTQWEYGFFGSAbSbZZbZZbzRSSZc;;1;OOO+$9890999909999080898999989CB<8PLPLPPLLLPPPLLLKLLPLL",
"PKLKPPLPPKLPKLq986$@O+N<,898899899809$+$bcbYHYHFGGGSbZSbbAbbbZbSADSz3;>1;OOO@69988998998098808989898009CB<9LPLLLPPLLKPKPLLPKLKLL",
"KLPPKLLLPLKIPLq986$@O+N<,799008999098$+$FADYYYGSSSSSZZbZbvbvbbASZZc3;;>1;OOO@88990089990989080099999889CB<8PLILLLKKLPKPKPPKLPLKP",
"PKLKPPLKLPPLKKq986$@O+N<,809889098080$+$HZFEYYGSGDGDZbSbZccczzcvcl1;;>11;OO@690098890980808998999999899CB<8LPKLPLLLLKPLLKLPKLKPL",
"LPPKLLLPLKLKILq986$@O+N<,888809899889$ ObZGEHRJGSFSZSAcblclkjjjlh;;;>221;o16999888098998890909989809099CB<7KPLPLPLKPLKKPKKLPPLLK",
"PKLPPKLLPPKKPLq886$@O+N<,809989089099933zbRYETHJFSSGAZbcczkkjlkhj311h331;;>6998099890890999998999988999CB<6LKPKLKKPLKKKLLLPKLPLL",
"KKPLPPLKPPLPLLq866$@O+N<,898989890889cvvcbDSJYHGGFFZZZvcz3jklkh3jlhhj321;;28009989898908898889888998889CB<7PKKPPLKLLKKKKPPKKPKIP",
"LPLPKLLPPLPKPLq865$@O+N<,7999980988qcSHHZGGGGJRGJGSSZZcckllkkh3hlcczj321;;10988999980988q99099090999899CB<7LLLKKPKKKLKPKPLLPLPKL",
"PLPLLKIKKLKLPLq865$@O+N<,88998999908cSHHDSSGFGYJJFGSZbvzlkjkk3hklclll321;;18999899899990889999888989999CB<8LKPLKKPKPLLLLPLPLPLKL",
"LPKPLPPPKLLLKLq864$@O+N<,8089q988980vZHGFDSSGFYYGDAbvvzczkzzkkzcbcvc331:;;1l880089q98898009889099999089CB<7LKPKLKKKLKPKKKPLPKLLP",
"KLPPKPLLPPKLKLq864$@O+N<,788988008098cmGDSAASSGGASZbbzcckzlzccccczck3>:;;1kll08889880080989909889098889CB<7LPPLPKKLLKKPKPKKLPPKK",
"KKLKKKPKKLKLKK9654$@O+N<,8909909908808cbZSAZbSSSSbccckllzklzvbccvl31::;>jkjk2l0909909908808889908898909CB<7KLPPLKKLLLKLLKKKKLLKK",
"qqKKKKKKKPKKKq864$$@O+N<,88088988999800vcbbZZvZvclzkjzccljlbAZbvl31:13kzkj232l8808898899980008990080999CB<5qqqqqqqqqqqqqqqqqKKKq",
"888888888qqq98654$$@O+N<,808999998099898908zzvckjzkzccxzllcZbbvk21lzzczkj1213k8089999980998989089808889CB<+888888888888888888888",
"566667788888654$$$$@O+N<,88890899988098989890kzzlxcbvxzllccZZbckllczkzjjj333333889089998809898989080999CB<O$55555555555555566665",
"55556566666544$$$@@+O+N<,79998999999899909099989ccvmvzlkzbAGbbvzcczkzjl3j232:323k9899999989990909998989CB<.+@$$$$$$$$$$$44555555",
"555555$$$$$$@@@@+OOO+@N<,808809998999999899809899bbZvclcvbSZZblzkkzzkkz3322:223j33k99989999998998098999CB<.OOOOOOOOOOOO+++##$455",
"444$$$@@@@@@+++OO+++@$N<,8880890999998098990880990ZmbccbbSDblklkzclkcclz3112jkjj3j23k999998098990880999CB<O+OOOOOOOOOOOOOOO+#$$$",
"OOOOOOOOOOOO+++++@$445N<,890908090990989988899898cbcczbcZAbcllzckczclz3:::333jj333j233k9909899888998989CB<+$+++++++++++OOOOOOOOO",
"OOOOOOOOOOOO++$$$45655N<,80888989899898998989899bckcczvbZbjllvclcccc3>>>23zccccczlljjj33k89899898989999CB<#65$$$$$$$++++++OOOOOO",
"5455556668888888888864N<,7809999909999999089999bcj1kzbvczkzvvvvbbb31>jzllvvZbbcvZbbczzkj33k999089999009CB<#6666665555$$$$$$$$$$$",
"55888899KKLLKKKKKKKK55N<,898990988800998980999bck311kcbzzvvbZcvc3>13lzvZbAZZZbZZbZZAnnczk333k9809999999CB<+56666666666655$$$$$$$",
"88KKII//////^^^^^^PP6$N<,88899999909888980899bc333321vbvbbSbvb31>jzcvmvbbvvcZZSbbZZZZZSncz233k089999889CB<7PPLK98866555555555566",
"89KKIPPPPPPPPPPPPPLP6$N<,8090880998898990908bzkl322kvczbZZZclX>2lzbbbbZbZbZAbbbAZAZbAZSbcbzk33k08988999CB<q^IPPLKqq9886655555566",
"8qPLKKPKKLLLPIP~LLLL6$N<,799800898009089989xzl3jk3cbvZSSSSv3X1jlzbcbbvbbvZbbbZbZbvAAbZbZSvcj312k9898909CB<0~~II~^//////^PK965556",
"8qPLKKKqLKKqLLLLPLLL6$N<,89808098099890090zlljk3lZbSSSASZb2X113cbvbZbbZZZZbZZZAbbZbAZbSZZvvck113k990989CB<9~I~~IIIII~I~IIPq65$56",
"8q~PKPPKKKKKLPLLLLPK6$N<,8800989998890998zk3323zZZSDGGGZb2X>3kcvcbZbAAbZZbvvvczlvbbzbvvcvbbz3;:11389909CB<0I~IPPPLPLPLKLKKq65$56",
"8q~PKKLKPLqLKKLLPKLK6$N<,889889998999888832223cZZSDGGGZc3X1k3zbcZbbbbvbvbbvzczzzczcczkjlkkjk3z3:::39999CB<9IPIPLPPLLPKLqKqq65$56",
"8q~PKPLPqPKKPLLKKLPL6$N<,8999989898898093o123jz:kGHYDAb3X;1jzvbbbbbAZAbbcczczzzvzcczzjkj3l3112k31:18809CB<9~IPLPLPLPKKqqq9865$55",
"8q~PKKqLPKKqKLKIKKLL6$N<,80998989899999j1:X13lkoXjSYSv2X:13zbvcZbZZzbclzccczzlzczkjczzlcckk33::11:;9089CB<9PPLPLPLPKLLqq98965$$5",
"8q~IKIKPKqKPKKKPLLKL6$N<,79899899098883j>>::3z3XXX3Sb3o;2jcvvbAbbZbZccz3j2kclclzzkllczczljj331;X:1:9999CB<9PLLLPLLKLKqqq99865$$5",
"8q~ULKLKPKqKLKPLKLLL6$N<,890990898899zlkk3:3ck>23XX1:;;3jcvZAZbZZvvzcklk1>3lbvbvbbvbcbclvzckk31:X1:9809CB<8LPPLLLLqKqq9qq8965$$5",
"8q~PPKKKLqKKqPKPLKKK6$N<,899889099080zzjj313z31313>>1323lvbZbASZbbbvvzj11o:1kbvvbccvZbcckcckjj1>>::9989CB<7PPLLLLKKqqqq989865$$5",
"8q~IKPqKqKqKKKLKqKqK6$N<,89999980808clll3331k133323322kbZbADZAAZvbvzc331o:3bvbvZZZbvbZcclbvzc211;::9099CB<7PLPLLKKqqqK9q98965$$5",
"8q~ULPKLqKKKPLqKLqqq6$N<,80989998980kkzjj232l>3zcczklvbbcASZZvbSbccclj1>X3lzbcZAZzbZAcclccvcl3>1::;9899CB<7LPLLKLqKqq9qq89865$$$",
"8q~UPKPKKPqPKKKqKKq96$N<,88909899989czlkj332:jkcvccczbvvvvbczbSZcbclk31oXl3bbbZbvbZbZzcjlbbzz311:;>9909CB<6KLKKqK9qq9q9898665$$$",
"8q~PPPKKKKPKLKqKqK9q6$N<,8899999990lckkjj33313lccczvvcvvkcjklvbbblckj1;XX1bvbAZcbZSZbzckkbvzz311:::0999CB<49qqq99q8988886865$$$$",
"8q~IKPqPLLKqKqKKLLq96$N<,8989899989cllzzj3333czzzcbvZSSGZvvbcj3zccz311;XXccvbZvvbSAZbcl3zcvcz311:::8889CB<+5666666666666665$++$$",
"8q~ULLPKLKKLKKIKKKqq6$N<,8098998999cczkk33333zcczbSSZAGZbvbcbz33jc311:XXkbbAbcvAZZSbzzj2zbZlk311:::9989CB<.O++++++++++++++OO+$$$",
"8q~IPPLKKLLKLKPLKqLq6$N<,880089999czjkl3k3333vccZSSSSSGbZvbmbl3kzk22>;oczzzcbbbbGDcbcl33zlbz3311:;>9909CB<.+++++++++++++++++$$$$",
"8q~ULLKLKLKLKPLKLKqq6$N<,898999089zcvlzkj333kczvSSSGGGDbbZbbk13zlk312XkzcczbvbZSSZbcc322cbAck311:::8889CB<+$$$$$$$$$$$$$$$$$$$$$",
"8q~PPPKKPPKPKPPLKL996$N<,809998809clczkk3333cccbDGGGGAbbbbbz13ckl3111PLPPDZbZbAGZZbz3331cbDlj>1::::9999CB<+5$$$$$$$$$$$$$$$$$$$5",
"8q~UKKPPLLPKPqKqLKLq6$N<,898809999ccczklk333kzlbZvZZbbbbbbb31jcj2111P0LP~~PPZZDSbvvj2211vZFlk11::;58909CB<#6666666666666666$$$56",
"8q~PPLLPLLIPPKKLLKq96$N<,88088999zclkllkj33zvcclj;X:kzbbbvk13kk1111L66@$@@$PLasZZc332211vAGc311::>60989CB<5qqqqqqqqqqqqqqq85$$56",
"8q~PKLPKPLLKLLPKKqq96$N<,78800998zlzzkzkk33zzzcll33XX:1zbZk;3l>2118L6  @@$@PLcpirj333111bDGc311:::68999CB<q^^^^^^^^^^~~IPPq6$$56",
"8q~PKPLKKLKIKLLPKL996$N<,8098999cvckcjzj33kvzvbbbZb;;XXX11;k311196$~9  ~PPPPPKzspr332211bGSc311:>:89989CB<K//////////^~IPLq8$$56",
"8q~UKLKILKKPLLKKKq985$N<,8898999cjcl3zkk33jkccZHGDc;;xh3332k1119L8@~P6 7PLLKKK0paptt3211bAFz311:;:899K9CB<K/////////^^IILK88++55",
"8qUPPKLLPKPLKLPKLq865ON<,899089ccbzcczll32ccbxvZHDZ>;vckkjz111w9L6+        @6007apitt211bZDzj:;1;:99989CB<0~~~~~~~II~~~PKq88++55",
"8q~ULLKPKPKPLKLqKq665ON<,698908ccvvbvjk33cclcZxZHSb1>bbjkk31>ey9L66         $007iiiut-3kbbck3::;o:09989CB<8I~~IIIIPIIIPLqq86$+$5",
"8qUPPPPKLKLKqLqqLq66$ON<,89098czczccck323zzbvZHSDGb31vxlkl1>eyig9LK086$+ 96@@007uuuuerw3kjk32>o;;:88009CB<7PLPPPIPIPPPLKqq86$+$5",
"8qIPKKPPKLqKLqqLqq65OON<,80099zzzccccc3j3vcbbZHHHGbk3cljl11eyuid9LKLLL8$ 69$$983uyteeee-zkl31:oX;:9K899CB<6PKLLLPLPILPKKq986$+$$",
"89LPLLLKLKKqKKqqq965OON<,8890bbvczllz333klcvbbASSGZvckj11chrryipsKL@@@@+ 7799881trrrrwe--33:;;XX1:99989CB<8LKIPPKPLPLKLKq986$++$",
"58LLLLKLKKqKqqqqq96$OON<,8988vbzzljzl23k3czvvbZGDGbczkl1lczlyrysp80@@$$$@688883teeerwww=w>:::oX;1:98009CB<7PLLKKLKILPLKKq986$++$",
"58LLLLKqKqqKqKqq985+O+N<,7990bclccvlkcckzccbvbAZZAbkk1>DSAbbl1iiss0K0K98888883ererr-w--=*%>::;X;1799889CB<8KLKIKKKPKLqKKq9865++$",
"58LLLLqKqKqqKqK886+O+@N<,8098cvzzlvkzzzzkzcvbbbvbbbkk11lGSAZbvvffsp908888883ttrrrwwwe-==&&>::o;11899899CB<6LKKPLLLKLqKKqq9865++$",
"55LLKK9qqqqqq8665+O++@N<,88vbAbcccj33bvccclkjlklkZbZGZ3zcDSAbbbc31iiaapuurrrtee-e-r--**&&%%;;;113809099CB<6PKPLKLLLKKqKKq9865++$",
"559qqq8888866665+O+++@N<,80bZbbZvccz3bbzzzckkjkkkvZHYbk;1zSSAZvvz3>;issayyuttrerrw---&*=*%%;;1113988999CB<7KPKPLKPKLqKqKq9865O+$",
"55688866555544$O+++++@N<,89vZbZvmZczbcclcllkzzzzlSJHTSc1;>cSDbbbvz3>;irttrr-trre---*&*=%%%X111122998889CB<7LKLKqqLKKKqKqq9865O+$",
"5544$$$@@@@@@@@+++++@$N<,79bbZbZbvvZbbbczccczzczzSJTRSSz>1cSGDbcvbz3>Xiytrtteewww--&**&%&X;11133z999899CB<6KLqKLqKqPqKqKq9865O+$",
"554$@@@++++++++++++@@$N<,8899vZbbbZbbbbczlzlcvZbDFJJSbDSxkvAFGDbvclk1>Xieerweww=-*&**%%&X;111223j989999CB<7KLKLKLKKKKqKKq9865O+$",
"6666554$$@++++++++++@$N<,8089bbbbZbAZZbccczczZZDGGDbZbbSSvZDASSbblzz31>Xererw-e--*=*&%%X:111233kz999089CB<7KqKqKKqKqqKKqq9865O+$",
"665555554$@@@+@+++++$$N<,788988ZZbZvvZZZbvcvbbvAGSDDAvZZZDSFFGDbbzzck21;&wr-ew=&**&%&&X:11133jjk8098889CB<5LLqKLqKqKqLqqq986$O+$",
"555$$$$$54444$@@@@++$$N<,890990bbZc90bvvbvbczbbSGDSbbvbZZSDZSAZbAczckj1;Xrre--w****&%X:111233klcz898909CB<6qqKqKKqKqqKqKq986$O+$",
"55$$$6699999866$$$$$$$N<,8808898899980099bZZZcbDDZbclbczlvbSGSZAbcc3j211;&w-==&%&%%%X;111>3kzzzcv080999CB<5qKqqKKKqqKqKq9966+O$$",
"5$$8KLLIIIIPKq96665$$$N<,8089999980998989mbZvbcAZbvcbcvzczlZbZbbbzckj231;Xe=-*&&%%XX;113233kjcvcv808889CB<5qqqKqKqKqKqq98865+O$$",
"5$8K~^////^^^IPLq96666N<,8889089998809899ZZZZbAbbvbvvczvvj3jjjjjk3j33323:;==*%%%%X1111233llzccvvb080999CB<59qq9qq9qqqq988865OO$$",
"$$q~^^~~~PPI~^^^~ILq96N<,7999899999989990ZDZZZbbbbvvcvvcckjjjjk3jzk332333;;&=%%XX1>3233kllcccbbAb998989CB<59999999998888865$++$$",
"$$K~^~IPPPPPIII~^/^~PLN<,80880999899999989bZGZbbZbbZbZbbvcbcbczzkjkljkljk1o&%%1j323jjkjczcbbbvbAb098999CB<#666666666666655$$++$$",
"5$L^~IPPIPPPPPPPII^/^~N<,888089099999809899ZvvAbbAZZZZZZbbbbvcczcczjzzklk31%%1313j3kzccccvvSZbZZb880999CB<+5555555555$$$$$++$$$5",
"5$L^IPLLLLLLLLLLPPP~~^N<,890908090990989988899vZZZSbAZSbZAZAZZZZcbvvlzclc3k223jjlkzlccAbbZZbSGZb8998989CB<O$$$$$$$$+++++++++$$55",
"5$L^IPKKKLKILLKKLPPPP~N<,8088898989989899898989bZGZSSZADZAbAASZbZbbvmbcccvzclczcjlzccbbZZvbbAAc98989999CB<.+++++++++++++++$$$555",
"5$L^ILKLLKKPLPPLKLKLLLN<,780999990999999908999900809vSDSDSGGSDSFGGSSASSbbvvZbbcvZbbbbZASZb9999089999009CB<.+++++++++++++$$$$5555",
"5$L~ILPKPKPLKPKKKLKIKKN<,8989909888009989809999999899SSDSGSSGZAbAAZbZbZSZSSZZZAZbZZAbbbbZ09989809999999CB<O$$$$$$$$$$$$$$$555556",
"5$LIIKKPLLLLLKKLLKKPLKN<,88899999909888980899998890988ZSGSFGAm90890990vbZbbvAZSZZAAAb990988898089999889CB<O$$$$$$$$$$$$$55555566",
"5$L~IKPLKLPKLKPKPKPLKLN<,809088099889899090898899890K97bASSZZ9989899990bbvZZbvvZbmbcZ998898990908988999CB<+555555555555556666666",
"5$LIIPKPLKLKLKKPLPKPLKN<,799800898009089989989890998880909998999808998988099998998008980090899899898909CB<+555555555555555666666",
"55LIILPLLLPKKKLPLKPKKPN<,8980809809989009000q9098089999989800880099088999990000980809809989009000990989CB<K////////////L55555566",
"55KPILLLLLPIKIPKKPLPKPN<,789999999999999999999999999999999999999999999999999999999999999999999999999999CB<0~~~~~~~~~IIIPq5555566",
"559KKPLPPLLL~LLLLLPLLPN<,NCCCCCCCCCCCCCCCCCCCCCCCCCCCCCCCCCCCCCCCCCCCCCCCCCCCCCCCCCCCCCCCCCCCCCCCCCCCCCCB<9IPPLPLPPLLPPPPL655566",
"5569qqKLKIPPKPKPLLPPLLN<MBBBBBBBBBBBBBBBBBBBBBBBBBBBBBBBBBBBBBBBBBBBBBBBBBBBBBBBBBBBBBBBBBBBBBBBBBBBBBBBB<7PPPPPPLPPPPLPLKq65566",
"56$6988899999899999998N<<<<<<<<<<<<<<<<<<<<<<<<<<<<<<<<<<<<<<<<<<<<<<<<<<<<<<<<<<<<<<<<<<<<<<<<<<<<<<<<<<<8PPPLPLPPPPLPLLKq6$566",
"55$$$544444444444444444+..................................................################++..454#4##44#478LLPLPPLPLPLLKLKq6+$66",
"55$$$+++++++++++++++++++++++++++++++++++OOOOOOOOOOOOOOOOOOOOOOOOOOOOOO+@@@#444444444444444$#@@6776565665676LLKLKLKLKLLKLKKq6+$66",
"554$@++++++++++++++++++++++++++++++++OOOOOOOOOOOOOOOOOOOOOOOOOOOOOOOOO+$$$@4455555566665554$$$9988888888699KKKKKKKKKKKKKKK96+$66",
"6655$$$$$@@@@@@@@@@@@@@@@@@@@@@@+++++++++++++++++++++++++++++++++++++++5$$$$$556666888865$++$$qqqqqqqqqqqqqqqqqqqqqqqqqqq986+$66",
"6655$$$$$$++++++@$$$$$$$@@+++++++++++++++++++++++++++++++++++++++++++++5$$$$$$$++++++++++++$$$66666666666666666666666666666$+566",
"666666655444444455555555$$$$$$$$$$$$$$$$$$$$$$$$$$$$$$$$$$$$$$$$$$$$$$$$$$$$$$$$$$$$$$$$$$$$$$65$$++++++++++++++++++++++++++$566",
"666666665555555555555555$$$$$$$$$$$$$$$$$$$$$$$$$$$$$$$$$$$$$$$$$$$$$$$$$$$$$$$$$$$$$$$$$$$$$$6666$$$$$$$$$$$$$$$$$$$$$$$$$55566",
"$$$$$$$$$$$$$$$$$$$$$$$$$$$$$$$$$$$$$$$$$$$$$$$$$$$$$$$$$$$$$$$$$$$$$$$$$$$$$$$$$$$$$$$$$$$$$$$$$$$$$$$$$$$$$$$$$$$$$$$$$$$$$$$$",
"$$$$$$$$$$$$$$$$$$$$$$$$$$$$$$$$$$$$$$$$$$$$$$$$$$$$$$$$$$$$$$$$$$$$$$$$$$$$$$$$$$$$$$$$$$$$$$$$$$$$$$$$$$$$$$$$$$$$$$$$$$$$$$$$"
};
