/* XPM */
static char *b4da811fcd8249b49121405f69fbcd56x715EUAzDLgC1Gvj[] = {
/* columns rows colors chars-per-pixel */
"128 128 82 1 ",
"  c #2B0000",
". c #2B230F",
"X c #373700",
"o c #3B2F17",
"O c #232323",
"+ c #2F2F2F",
"@ c gray23",
"# c #570000",
"$ c #630000",
"% c #6F0000",
"& c #770000",
"* c #43331B",
"= c #4B3B1B",
"- c #573F1F",
"; c #434300",
": c #4F4F00",
"> c #5F5F00",
", c #6B6B00",
"< c #777700",
"1 c #5F4323",
"2 c #6F4B27",
"3 c #774F2B",
"4 c #004343",
"5 c #005B5B",
"6 c #007373",
"7 c #4B4B4B",
"8 c gray34",
"9 c #676767",
"0 c gray45",
"q c gray50",
"w c #830000",
"e c #8F0000",
"r c #9B0000",
"t c #9F0000",
"y c #A70000",
"u c #B30000",
"i c #BF0000",
"p c #CB0000",
"a c #D70000",
"s c #E30000",
"d c #EF0000",
"f c red",
"g c #9F4F00",
"h c #B75700",
"j c #83532F",
"k c #8B5B33",
"l c #935F37",
"z c #CF6300",
"x c #E76F00",
"c c #FF7B00",
"v c #AB6B43",
"b c #B77347",
"n c #878700",
"m c #939300",
"M c #9F9F00",
"N c #AFAF00",
"B c #BBBB00",
"V c #FF8B23",
"C c #C7C700",
"Z c #D7D700",
"A c #E3E300",
"S c #EFEF00",
"D c yellow",
"F c #FF9B43",
"G c #FFAB5F",
"H c #FFFF57",
"J c #008787",
"K c #009F9F",
"L c #00B7B7",
"P c #00CFCF",
"I c #00E7E7",
"U c cyan",
"Y c #23FFFF",
"T c gray56",
"R c #9B9B9B",
"E c gray67",
"W c #B7B7B7",
"Q c #C3C3C3",
"! c LightGray",
"~ c #DFDFDF",
"^ c #EFEFEF",
"/ c white",
/* pixels */
"33333333333333333333333333333333333333333333333333333333333333333333333333333333333333333333333333333333333333333333333333333333",
"11111111111111111111111111111111111111111111111111111111111111111111111111111111111111111111111111111111111111111111111111111111",
"kkkkkkkkkkkkkkkkkkkkkkkkkkkkkkkkkkkkkkkkkkkkkkkkkkkkkkkkkkkkkkkkkkkkkkkkkkkkkkkkkkkkkkkkkkkkkkkkkkkkkkkkkkkkkkkkkkkkkkkkkkkkkkkk",
"llllllllllllllllllllllllllllllllllllllllllllllllllllllllllllllllllllllllllllllllllllllllllllllllllllllllllllllllllllllllllllllll",
"jjjjjjjjjjjjjjjjjjjjjjjjjjjjjjjjjjjjjjjjjjjjjjjjjjjjjjjjjjjjjjjjjjjjjjjjjjjjjjjjjjjjjjjjjjjjjjjjjjjjjjjjjjjjjjjjjjjjjjjjjjjjjjjj",
"22222222222222221-=--=-122222222222222222222222222221-=--=-1222222221-=--=-12222222222221-=--=-122222222222222222222221-=--=-122",
"--------------*o=-o.o*---=********=---**--**--****--=-o.o*----**--oo=-o.o*---=******=-oo=-o.o*--*=--=**=--=*=-**-----==-o.o*----",
"-----111111111*o13o.o-3--=********=---**--**--****--13o.o-3---**--oo13o.o-3--=******=-oo13o.o-3-*=--=**=--=*=-**-----=13o.o-3---",
"====-233333332=-3l-o-2l21-========1333==12==12====--3l-o-2l233==23--3l-o-2l211======11--3l-o-2l2=1331==-33-=13-=1333323l-o-2l212",
"====-233333332=-3l-o-2l21-========1333==12==12====--3l-o-2l232==23--3l-o-2l211-====-11--3l-o-2l2=1331==-33-=13-=1333323l-o-2l2-2",
"====-233333321=-3l-o-2l22-=======-1332==12==12====--3l-o-2l232==23--3l-o-2l221-====-13--3l-o-2l2=1331==-33-=13-=1333323l-o-2l2=1",
"====-133333321=-3l-o-2l221=======-1332==12==12====--3l-o-2l232==23--3l-o-2l2221-==-123--3l-o-2l2=1331==-33-=13-=-333323l-o-2l2=1",
"====-12333AAAZZZZZZCCCCCCCCCBBBBBBBBBBBBBBBBBBBBBBBBBBBBBBBBBBBBBBBBBBBBBBBBBBBBBBBBBBBBBBBBBBBBBBBBBBBBBBBBBBBBBBBBBBBB-o-2l2=1",
"====-12333A//DDDDDDDDDDDDDDDDDDDDDDDDDDDDDDDDDDDDDDDDDDDDDDDDDDDDDDDDDDDDDDDDDDDDDDDDDDDDDDDDDDDDDDDDDDDDDDDDDDDDDDDDDNn-o-2l2=1",
"-===--2233A//DAAAAAZZZZZZCCCCCCCCCCCCCCCCCCCCCCCCCCCCCCCCCCCCCCCCCCCCCCCCCCCCCCCCCCCCCCCCCCCCCCCCCCCCCCCCCCCCCCCCCCCCC<>*o*-l2=1",
"-===--1233ZDDZCCCCCCCCCCCCCCCCCCCCCCCCCCCCCCCCCCCCCCCCCCCCCCCCCCCCCCCCCCCCCCCCCCCCCCCCCCCCCCCCCCCCCCCCCCCCCCCCCCCCCCCV2-*o*-l2=1",
"21===-1123ZDACMnnnnnnnnnnnnnnnnnnnnbvzzzzzhhhhhgggggggggggggggggggggggggggggggggggggggghhhhhhhzzzvbnnnnnnnnnnnnnnnnNCVg-*o*-l2=1",
"21====-112ZDAVn,,,,,,,,,,,,,,,,,,,,,,,,,,,,,,,,,,,,,,,,,,,,,,,,,,,,,,,,,,,,,,,,,,,,,,,,,,,,,,,,,,,,,,,,,,,,,,,,,,,nBCVg-*o*-l2=1",
"21=====111ZDZVh1++++++++++++++++++++++++++++++++++++++++++++++++++++++++++++++++++++++++++++++++++++++++++++++++++mSCVg-*o*-l2=1",
"21=====--1ZDZFh1++++++++++++++++++++++++++++++++++++++++++++++++++++++++++++++++++++++++++++++++++++++++++++++++++NSCVg-*o*-l2=-",
"31-=====--ZDCFh1++555555666JJJJJKKKKKKJJJJ666666666666666666666666666666666666666666666666JJJJKKKKKKJJJJJ666555544CSCVg-*o*-l2=-",
"321=====--ZDCFh1++555666JJJJKKLLLLLLLLPPPLKKKJJJ666666666666666666666666666666666666JJJKKKLPPPLLLLLLLLKKJJJJ666544CSCVg-*o*-l2=-",
"331=======ZDCFh1++56JJKKLLLLPPPPPPPPIIYYIIIPIIPPLLLLLKKKKKKKKKKKKKKKKKKKKKKKKKKLLLLLPPIIPIIIYYIIPPPPPPPPLLLLKKJJ66CSCVg-*o*-l2==",
"331-======ZDCFh1++66JKLLLPLLPPIIIIIIIIIIPPLKJJ65ssssssssssssssssssssssssssssssssssss56JJKLPPIIIIIIIIIIPPLLPLLLKJ66CSCVg1*o*-l2==",
"2221======CDCFh1++6JKLLLLLLPPPPIYIPPLKJ65dssssssssssssssssssssssssssssssssssssssssssssssssd56JKLPPIYIPPPPLLLLLLKKKCSCVg1*o*-l2==",
"2231======CDCFh1++JJKLLLLPLLPPPPLLK65ddsdsdssssssssssssssssssssssssssssssssssssssssssssssdsdsdd56KLLPPPPLLPLLLLLKKCSCVg1*o*-l2==",
"22321-====CDCFh1++JKPPPLLLLLLLLK65dfddddsdsdssssssssssssssssssssssssssssssssssssssssssssdsdsddddfd56KLLLLLLLLPPPLLCSCVg1*o*-l2==",
"22331-====CDCFh1++KLPPPPPLLLLLJffffdfddddsdsdssssssssssssssssssssssssssssssssssssssssssdsdsddddfdffffJLLLLLPPPPPPLCSCVg1*o*-l2==",
"123321====CDCFh1++KLIIPPPPPLK5fdffffdfdddddsdssssssssssssssssssssssssssssssssssssssssssdsdddddfdffffdf5KLPPPPPIIILCSCVg1*o*-l2==",
"1233321===CDCFh1++LPIIIIIPPPJpdfdfffdfddddsdsdssssssssssssssssssssssssssssssssssssssssdsdsddddfdfffdfdpJPPPIIIIIIPCSCVg1*o*-l2==",
"-2333311==CDCFh1++LPIUYIIIIP5asdfdfffdfddddsdsdssssssssssssssssssssssssssssssssssssssdsdsddddfdfffdfdsa5PIIIIYUIPPCSCVg1*o*-l2-=",
"-1333321-=CDCFh1++KLIUUYYIILyiasdfdfffdfddddsdsdssssssssssssssssssssssssssssssssssssdsdsddddfdfffdfdsaiyLIIYYUUIPLCSCVg1*o*-l2-=",
"=123333211CDCFh1++KLPIUYUYILeyiasdfdfffdfdppppuuuuuuuuuuuuuuuuuuuuuuuuuuuuuuuuuuuuuuuuppppdfdfffdfdsaiyeLIYUYUIPPLCSCVg1*o*-l2-=",
"=123333321CDCFh1++KLPPIUUYIPweyiasdfdfffpurrr4566JJJJJ6J66655554545455555666J6JJJJ6654rrrrupfffdfdsaiyewPIYUUIPPLLCSCVg1*o*-l2-=",
"=-22333322CDCFh1++KKLPPIUIIP#&eyiasdfdptw4455556JJJJJ6J6665555444444445555666J6JJJJJ6555544wtpdfdsaiye&#PIIUIPPLLLCSCVg2*o*-l2-=",
"=-22333333CDCFh1++KKLPPPIIIP5#&eyiasdu&45555555566JJ6J666554544444444445455666J6JJ66555555554&udsaiye&#5PIIIPPPLPPCSCVg2*o*-l2-=",
"==12233333CDCFh1++JKPPPPPIPK5%#&eyipw&w$4555555656565555454544444444444454545555656565555554$w&wpiye&#%5KPIPPPPPPICSCVh2*o*-l21-",
"==12233333BDCFh1++JJPPIPPPK5ew$#&eyw&epy$55555656565555554544444444444444545555556565655555$ype&wye&#$we5KPPPIPPIICSCVh2*o*-l21-",
"==-1233333BDCFh1++6JIIUIPL8iuew%#&w%euw#w559W^//~QRq854545444RQ~~^~QWR9444545458qRQ~//^W955w#wue%w&#%weui8LPIUIIIICSCVh2*o*-l21-",
"==-1223333BDCFh1++6JIPPIKsapiuew$#&$ew#&w6W~////~WT094545444R^^/////!Wq9444545490TW~////~W6w&#we$&#$weuipasKIPPIIICSCVh2*o*-l21-",
"===-123333BDCFh1++56IPLKddsapiuew%####$y9~//^!ERTq9994454449Q^/QR7qQ!WR84444544999qTRE!^//~9y$####%weuipasddKLPIIICSCVh2*o*-l211",
"===-122332BDCFh1++56PPKdfddsapiuew$##&y8~//^QRq988788444444qQ^/~R770R!QEq844444887889qRQ^//~8y&##$weuipasddfdKPPIICSCVh2*o*-l2-1",
"===--12222BDCFh1++55KJffdfddsapiuerrrr5~//^QRq88@+@77444544TQ/////QE!~~~~Wq544477@+@88qRQ^//~5rrrreuipasddfdffJKPICSCVh2*o*-l2-1",
"====-11221BDCFh1++55K5fffdfddsapiurr55E^/^QRq87@++@74445444RQ/////QEW!!!!~E454447@++@78qRQ^/^E55rruipasddfdfff5KPPCSCVh2*o*-l2-1",
"-===--111-BDCFh1++556dffffdfddsapiw5JK~/^QRq87++++784454444T~~^^!WRREEEWW!E4454487++++78qRQ^/~KJ5wipasddfdffffd6LPCSCVh2*o*-l2-1",
"-===---1--BDCFz1++554sdffffdfddsuw5JKE^/^Wq97@++++784444547R~^~^~Rq000000ET5444487++++@79qW^/^EKJ5wusddfdffffds4LPCSCVh2*o*-l2-1",
"-====----=BDCFz1++55wisdffffdfduw6JKq!//QR88@+++++797444448Q!^~^~Rq878q44444444797+++++@88RQ//!qKJ6wudfdffffdsiwKLCSCVh3*o*-l2-1",
"--====--==BDCFz1++55wuasdffffduw6JKKR~/^Wq87++++++8q7445449Q!~^~!Rq989q444445447q8++++++78qW^/~RKKJ6wudffffdsauwKLCSCVh3*o*-l2-1",
"1-========BDCFz1++55wyiasdfffpy6JKKKW^^~R07@+++@@+8T9744470Q^~^~!RT090q844444479T8+@@+++@70R~^^WKKKJ6ypfffdsaiywKLCSCVh3*o*-l2-1",
"1-========BDCFz1++55wwyiasdfdu5JKKLLQ^~!q8@@+++@7@9Rq98470R!^^~!^ERT0qRq4447489qR9@7@+++@@8q!~^QLLKKJ5udfdsaiywwKLCSCVh3*o*-l2-1",
"2-========BDCFz1++55%wryiasdae$5JKLLQ/!W08@@+++@789RETqqqqE~~^^^^~QWRREETqqqqqTER987@+++@@80W!/QLLKJ5$eadsaiyrw%LPCSCVh3*o*-l2--",
"21========BDCFz1++554%wryiasu$$$5JKKQ/!W97@++++@@88TWEREWQ^^~~^^^^~!QEEEEEWWEREWT88@@++++@79W!/QKKJ5$$$usaiyrw%4LPCSCVh3*o*-l2=-",
"21========BDCFz1++565#%wryiaw$$$&5JJQ/!R87@+++++@78qE!!~^^^^/^/^/^/^!WWQ!^^^~!!Eq87@+++++@78R!/QJJ5&$$$waiyrw%#5PICSCVh3*o*-l2=-",
"22========BDCFz1++6654#%wryiw$&ry&56Q/!R8@@++++++@78TW!^^^^/^////////^~!~^^^^!WT87@++++++@@8R!/Q65&yr&$wiyrw%#45PICSCVh3*o*-l2=-",
"22-=======BDCFz1++6JK64#%wry$$wupy&6E^!R8@++@@+++@@78qW^^^/^//////////^~^^^^^Wq87@@+++@@++@8R!^E6&ypuw$$yrw%#46KIICSCVh3*o*-l2==",
"22-=======BDCFz1++JKLK64#%wr$$wy&#&5E^!R8@++@@++++@@70R!^^^//////////////^^^!R07@@++++@@++@8R!^E5&#&yw$$rw%#46KLIICSCVh3*o*-l2==",
"121=======BDCFz1++KKIPK64#%w$$ee###&E^!R8@+++@@@+++@@80E~^//^/^//////^/^//^~E08@@+++@@@+++@8R!^E&###ee$$w%#46KPIIICSCVh3*o*-l2==",
"121-======BDCFz1++KLIILK64#%&wyr####E^QR8@++++@7@+++@78TQ^/^^/^^/^/^/^/^^/^QT87@+++@7@++++@8RQ^E####ryw&%#46KLIIIICSCVh3*o*-l2==",
"-22-======BDCFz1++LPUIIPKJ###&w&##w#E~!R8@+++++7@77@+@70E~^^~!~~^~^~~~!~^^~E07@+@77@7+++++@8R!~E#w##&w&###JKPIIUIICSCVh3*o*-l2==",
"-12-======BDCFz1++LPUUIILK########w#R~QR8@+++++@@77@++@9RQ!~!!~!~!~!~!!!~!QR9@++@77@@+++++@8RQ~R#w########KLIIUUIICSCVh3*o*-l2-=",
"-121-=====BDCFz1++LLUUUIPJ&$#####%w#R~QR8@+++++++@@++++9TQQ!!QQQQ!!QQQQ!!QQT9++++@@+++++++@8RQ~R#w%#####$&JPIUUUIICSCVh3*o*-l2-=",
"-122-=====BDCFz1++LLIUUUI5w%%$##$ww4T!QR87++@++++++++++8qWWWQQEEEEEEEEQQWWWq8++++++++++@++78RQ!T4ww$##$%%w5IUUUIIPCSCVh3*o*-l2-=",
"=112--====BDCFz1++KLIIUULyre&%$$&yw4TQWR87+@7@+++++++++80EWQETREEREEERTEQWE08+++++++++@7@+78RWQT4wy&$$%&eryLUUIIIPCSCVh3*o*-l2-=",
"=-121-===-BDCFz1++KKIIIIJyrreww&wyw4qWER88+@@7@++++++++79REWRTRRRTRRRRTRWER97++++++++@7@@+88REWq4wyw&wwerryJIIIIPPCSCVh3*o*-l2-=",
"=--22----1BDCFz1++JKPIILiyrrrewwey440ERE98+@@7@7@@@++++@8TRTTqqTqqqqTqqTTRT8@++++@@@7@7@@+89ERE044yewwerrryiLIIPPPCSCVh3*o*-l2-=",
"=--121---2BDCFz1++6JLPL5iuyrrreeyw459TRW98+@@@@7@77@@++@8qqTq9q090090q9qTqq8@++@@77@7@@@@+89WRT954wyeerrryui5LPLPPCSCVh3*o*-l2-=",
"==-121--12BDCFz1++66LL5ppiurrrryu45590Q~q9@@@@@7@77@@+@+70900978787787900907+@+@@77@7@@@@@9q~Q09554uyrrrruipp5LLPPCSCVz3*o*-l2-=",
"==--221122BDCFz1++66KJppppiuyyuiw56659~/R9@@+@@@@7@@++++7090987@7777@7890907++++@@7@@@@+@@9R/~95665wiuyyuippppJKPPCSCFz3*o*-l2-=",
"===-122221BDCFz1++66J5pppppiuiuw46JJ65~/Wq@@+@@@@@@+44447q0907++@@@@++7090q74444+@@@@@@+@@qW/~56JJ64wuiuippppp5JPPCSCFz3*o*-l2--",
"===-112211BDCFz1++6JJrupppppiuw446JKKJQ/Wq7@++@+@@+44444800q97+++@@+++79q00844444+@@+@++@7qW/QJKKJ644wuipppppurJPPCSCFz3*o*-l2--",
"====-1111-BDCFz1++JK6wrupppppw$4456JKKE~WR7@++@@++44444480qq08@+O++O@@80qq08444444++@@++@7RW~EKKJ6544$wpppppurw6PPCSCFz3*o*-l2--",
"====--11--BDCFz1++JK6$wrupppu$$%%45JKKqERW8@@@+@++4444449qTRq97O+OO+@79qRTq9444444++@+@@@8WREqKKJ54%%$$upppurw$6PPCSCFz3*o*-l2--",
"=====----=BDCFz1++KLJ$$wruppw$euue46JJ9q~/9@@@++@+4444449TRRRq8OOOOO@8qRRRT9444444+@++@@@9/~q9JJ64euue$wppurw$$JPPCSCFz3*o*-l2-1",
"======--==BDCFz1++LLK4#$wrup$$y&#%y56J69~/q7@@++++4444440RERRT8OOOOO@8TRRER0444444++++@@7q/~96J65y%#&y$$purw$#4KPPCSCFz3*o*-l2-1",
"==========BDCFz1++LLLJ4#$&er$%w&##%y5665W!Eq@@@+++444444qEEEER7OOOOO+7REEEEq444444+++@@@qE!W5665y%##&w%$re&$#4JLPPCSCFz3*o*-l2-1",
"-=========BDCFz1++KLPLJ4#$we%wr%###%y555TW!E7@@@+4444444TEQWER8OOOOO+8REWQET4444444+@@@7E!WT555y%###%rw%ew$#4JLPPPCSCFz3*o*-l2-1",
"-=========BDCFx1++KKPPKJ4##&eyy&####%y440T/!97@@44444444TW!QEE8OOOOOO8EEQ!WT44444444@@79!/T044y%####&yye&##4JKPPPPCSCFz3*o*-l2=1",
"-=========BDCFx1++JKPPLK64##&ee######%y480!/T9@@44444444RW!!EE8OOOOOO8EE!!WR44444444@@9T/!084y%######ee&##46KLPPPPCSCFz3*o*-l2=1",
"--========BDCFx1++JKIIPLKKJ65544######%y48TWWT@@+444448qW~~~~Wq8OOOO8qW~~~~Wq844444+@@TWWT84y%######44556JKKLPIIPPCSCFz3*o*-l2=1",
"1-========BDCFx1++6KPIIILKJJ65544######%y49T!E8@++4444qW!W~~W!Wq8OO8qW!W~~W!Wq4444++@8E!T94y%######44556JJKLIIIPLLCSCFz3*o*-l2=1",
"1-========BDCFx1++6JLPK5spiyw@@@@@######e445EWq8++4479EWRT~~TRWETTTTW!RT~~TRWE9744++8qWE544e######@@@@@wyips5KPLLKCSCFz3*o*-l2=-",
"1--=======BDCFx1++6JLJssssspurew@@######%e44qRq9++4479EQ00!Q00QETTTTEQ00Q!00QE9744++9qRq44e%######@@werupsssssJLKJCSCFz3*o*-l2=-",
"21-=======BDCGx1++56Jssdfffsapurw%#######e44459944VFGCCCCCCCCCCCCCCCCCCCNNNNMMMM>;44995444e#######%wrupasfffdssJJJCSCFz3*o*-l2=-",
"21-=======BDCGx1++565sdfffffsapurw%######%e444444hcGCGAAAS//D/DSSSSSSSSSAANMMCNMm>X444444e%######%wrupasfffffds566CSCCz3*o*-l2=-",
"21--======BDCGx1++55ssfffffffsapuye#######e44444hccNcFNCZASSSSSAAAAZZZZZZZZ<<NMn<,:X44444e#######eyupasfffffffss56CSCCz3*o*-l2==",
"22--=====-BDCGx1++55psdffffffdaapuyrw#####e4444hcGCGZASD/////H/DDDSSSSSSSSCnmNCNMn,:X4444e#####wryupaadffffffdsp56CSCCz3*o*-l2==",
"221--===--BDCGx1++45upsddffffaywwwruuw####&e44hcVFFBCZZZASSSSSAAAZZCCCCBNNMM,<MMn<>>:X44e&####wuurwwwyaffffddspu56CSCCz3*o*-l2==",
"121--===--BDCGx1++45rupsdddfar@44$$wryw###&e44hxcVFFBZZAAASSAAAZZCCBBBBNNMMM<,MMn<>>:X44e&###wyrw$$44@rafdddspur56CSCCz3*o*-l2==",
"1221--=---BDCGx1++44wruppsssy@4554$$$wue$&re4444gghhggzzhggggggggggggggggggg::XX;;XX4444er&$euw$$$4554@ysssppurw56CSCCz3*o*-l2==",
"-221--=---BDCGx1++44#wrrupssw@56654$$$wueeuw4444ghNBMmCZNnNN<>>aaaaa>>>>>>,<<>;X>:;X4444wueeuw$$$45665@wsspurrw#56CSCCz3*o*-l2==",
"-1221----1BDCGx1++444#&wrryye@5666654$$wuuw44444hxCZNNH/ZNDANaayaaaaaa><>>,<<>;X>:;X44444wuuw$$4566665@eyyrrw&#466CSCCz3*o*-l2==",
"-12211--11BDCGx1++4454##%&weee445566544www444444hxCZNNH/ZNDB:a$ eaaaaaa>>>,<<>;X>:;X444444www445665544eeew&%##4566CSCCz3*o*-l2==",
"=-2211--12BDCGx1++456654###$%weewwww444444444444hcCZNNH/ZNA:a$ %yaay%$aa>>,<<>;X>:;X444444444444wwwweew%$###45666JCSCCz3*o*-l2==",
"=-22211112BDCGx1++45JJ6654######$%%wwwrr44444444hcCZNNH/ZNMa$  #yay%  $a:>,<<>;X>:;X44444444rrwww%%$######4566JJKKCSCCz3*o*-l2==",
"=-22211122BDCGx1++55KLLKJJ665544#######&ry444444hcCZNNH/ZN:aa$  #y%  $ $a>,<<>;X>:;X444444yr&#######445566JJKLLKKKCSCCz3*o*-l2==",
"=-12221122BDCGx1++55KLLLKJJJ6655444######wy44444hcCZNNH/ZNaaaa$  #  #y$ea>,<<>;X>:;X44444yw######4445566JJJKLLLKKKCSCCz3*o*-l2==",
"==12333333BDCGx1++56KK6uyrrew4555554######wy4444hcCZNNH/ZNaaaaa$   #yaaaa>,<<>;X>:;X4444yw######4555554werryu6KKKJCSCCz3*o*-l2==",
"==12333333BDCGx1++56K6apiuyrwww%%455#######wr444hcCZNNH/ZNae$ae#    #yaaa>,<<>;X>:;X444rw#######554%%wwwryuipa6KJJCSCCz3*o*-l2==",
"==11233333BDCGx1++666dddssappuurww%4$$######ww44hcCZNNH/ZN:$ ##  ##  #yaa>,<<>;X>:;X44ww######$$4%wwruuppassddd66JCSCCz3*o*-l2-=",
"==11233333BDCCx1++66sfffffdaapiurrww%$$#####&&44hcCZNNH/ZNna#   #ye#  #a;>,<<>;X>:;X44&&#####$$%wwrruipaadfffffs6JCSCCz3*o*-l2-=",
"==--223333BDCCx1++66pdfffffdaaapiuyrww%%$##%&%44hcCZNNH/ZNMaa# #yaa# #ya;>,<<>;X>:;X44%&%##$%%wwryuipaaadfffffdp66CSCCz3*o*-l2-=",
"===-123333BDCCx1++56uddfffffsuwwwwwuurw&&&%&r%44hcCZNNH/ZNA<aa#yaa# #ya-:,,<<>;X>:;X44%r&%&&&wruuwwwwwusfffffddu66CSCCz3*o*-l2-=",
"===-123333BDCCx1++55riasdfffuw4444wwwuureewre$44hcCZBCH/ZNAB,aaaaar#aa;::,,<<>;X>:;X44$erweeruuwww4444wufffdsair66CSCCz3*o*-l2--",
"===-122333BDCCx1++45wruiasddw4444444wwuippur$444hcCDCAH/ZBAHN,-aaaaa--:>:,,<<>;X>:;X444$ruppiuww4444444wddsaiurw66CSCCz3*o*-l21-",
"====112322BDCCn1++454wrrrupp#444444444wwww&$444hFCZH///HHH////DCNNNNCCCCNNn,<<>::>>:X444$&wwww444444444#ppurrrw46JCSCCz3*o*-l21-",
"====112321BDCCn1++5664weerrr%44444545544444454hcCFHDD//DDD//HHSACCZAACCCCNNn,M<:::>>:X45444444554544444&rrreew46JJCSCCz3*o*-l21-",
"====--1221BDCCn1++5JKJ4%&&&ww%##44445566555566hz<mNNFGGNNNGGVcxxxxxxxxxxg-;;;;;XXX;;;X55665566554444##&ww&&&%4JKJJCSCCz3*o*-l211",
"=====-1221BDCCn1++5JKKJ64###&werrre&456JJ666J6hh<<>>xzhghzxzhggggggggggg--;;;;;XXX;;;X45666JJ654&errrew&###46JKKJJCSCCz3*o*-l221",
"=====-121-BDCCn1++56JKKKJ544########&46JJJ6J6hcCFC////HH//////HHDDDDCAAACCNn,<M<>::>>:X456JJJ64&########445JKKKJ66CSCCz3*o*-l221",
"=====--21-BDCCn1++456JKKJ5554########&6JJJJJhzNFCZSH//HH////HHHSAZCCZAAAACNNn,MM<:::>>:X56JJJ6&########4555JKKJ665CSCCz3*o*-l221",
"======-11-BDCCn1++456665wwwyiiaaaw##ww66JJKKhz<>zzcVGGFFGGVccxxxxxxxxxxxg---;;;;;XXX;;;X55JJ66ww##waaaiiywww566655CSCCz3*o*-l221",
"======-1-=BDCCn1++45555wwyyyiiywwy&wru66JJKJhh<>>zcczhghzcczhgggggggggggg---;;;;;XXX;;;X456J66urw&ywwyiiyyyww55554CSCCz3*o*-l221",
"======---=BDCCn1++444555544######wuuu$5566JhcNFZ////HHHH///////HDDDDBAAAZCBNNn,<nn>::>>:X45665$uuuw######445555444CSCCz3*o*-l221",
"=======--=BDCCn2++4444455444####$$$$$45566hcNFZHHH//HHHH////HHSSAZCBZAAAAZCBNNn,nn<:::>>:X55554$$$$$####4445544444CSCCz3*o*-l222",
"-=========BDCCn2++444444444444444444554455hz<>zzcVGGFFFFGGGVcxxxxxxxxxxxzg----;:;;;XXX;;;X455444444444444444444444CSCCz3*o*-l232",
"-=========BDCCn2++444444444444444444554455hh<>>zccxhggghzcczhggggggggggggg----;;;;;XXX;;;X444444444444444444444444CSCCz3*o*-l232",
"--========BDCCnmNCCCCCCCCCCCCCCCCCCCCCCCCCCCCCCCCCCCCCCCCCCCCCCCCCCCCCCCCCCCCCCCCCCCCCCCCCCCCCCCCCCCCCCCCCCCCCCCCCCSCCz3*o*-l232",
"--========BDCCmNSSSSSSSSSSSSSSSSSSSSSSSSSSSSSSSSSSSSSSSSSSSSSSSSSSSSSSSSSSSSSSSSSSSSSSSSSSSSSSSSSSSSSSSSSSSSSSSSSSSSCCz3*o*-l232",
"1-========BDCCCCCCCCCCCCCCCCCCCCCCCCCCCCCCCCCCCCCCCCCCCCCCCCCCCCCCCCCCCCCCCCCCCCCCCCCCCCCCCCCCCCCCCCCCCCCCCCCCCCCCCCCCz3*o*-l232",
"1-========BDCVVVVVVVVVVVVVVVVVVVVVVVVVVVVVVVVVVVVVVVVVVVVVVVVVVVVVVVVVVVVVVVVVVVVVVVVVVVVVVVVVVVVVVVVVVVVVVVVVVVVVVVVVz3*o*-l232",
"1--=======MMxxzhhhhhhhhhhhhhhhhhhhhhhhhhhhhhhhhhhhhhhhhhhhhhhhhhhhhhhhhhhhhhhhhhhhhhhhhhhhhhhhhhhhhhhhhhhhhhhhhhhhhhhhh3*o*-l232",
"11-=======nxzh3333333333333333333333333333333333333333333333333333333333333333333333333333333333333333333333333333333333*o*-l232",
"21--=======oooooo*oooo*oooooooooooooooooooooooooooooo*oooo*oooooooooo*oooo*oooooooooooooo*oooo*oooooooooooooooooooooooo*oo*-l232",
"21--=======-*oooo*oooo*oooooooooooooooooooooooooooooo*oooo*oooooooooo*oooo*oooooooooooooo*oooo*oooooooooooooooooooooooo*oo*-l232",
"211-=======-2-oo*-ooo*-*ooooooooooooooooooooo**ooooo*-ooo*-***oooooo*-ooo*-*oooooooooooo*-ooo*-*ooooo*oooooooooooooooo*-ooo-l232",
"221-======--22**-2*o*-2-ooooooo*==*oooooooo*---*oo**-2*o*-2--=*ooo**-2*o*-2-oooooooooo**-2*o*-2-=oo*===*oooooooooo****-2*o*-l232",
"2211-====-1122--3l-o-2l2========--========-1221-==--3l-o-2l21-====--3l-o-2l2-========---3l-o-2l21-==111--==========---3l-o-2l222",
"2211--==--1111--3l-o-2l2-=================-1111===--3l-o-2l2-=====--3l-o-2l2--======----3l-o-2l21-==-111-===========--3l-o-2l222"
};
