/* XPM */
static char *c223971c3bf34de5ed32cb76c10c117974Qep5Gm84UCzURL[] = {
/* columns rows colors chars-per-pixel */
"128 128 78 1 ",
"  c black",
". c #2B230F",
"X c #3B2F17",
"o c #232323",
"O c #2F2F2F",
"+ c gray20",
"@ c #373737",
"# c gray23",
"$ c #4B0000",
"% c #570000",
"& c #630000",
"* c #6F0000",
"= c #770000",
"- c #43331B",
"; c #4B3B1B",
": c #573F1F",
"> c #5F5F00",
", c #6B6B00",
"< c #5F4323",
"1 c #6F4B27",
"2 c #774F2B",
"3 c #434343",
"4 c #4B4B4B",
"5 c gray34",
"6 c #5B5B5B",
"7 c #676767",
"8 c gray45",
"9 c #7B7B7B",
"0 c gray50",
"q c #830000",
"w c #8F0000",
"e c #9B0000",
"r c #9F0000",
"t c #A70000",
"y c #B30000",
"u c #BF0000",
"i c #CB0000",
"p c #D70000",
"a c #DF0000",
"s c red",
"d c #9F4F00",
"f c #B75700",
"g c #83532F",
"h c #875333",
"j c #8B5B33",
"k c #935F37",
"l c #9F633B",
"z c #A3673F",
"x c #AB6B43",
"c c #B77347",
"v c #BF7B4B",
"b c #C3774B",
"n c #CB7F4F",
"m c #878700",
"M c #939300",
"N c #AFAF00",
"B c #BBBB00",
"V c #D7D700",
"C c #D38353",
"Z c #DF8B57",
"A c #EB8F5B",
"S c #F3975F",
"D c #FFAB5F",
"F c #FF9F63",
"G c #EBA377",
"H c #FFA773",
"J c gray56",
"K c #9B9B9B",
"L c gray67",
"P c #FFB383",
"I c #EFBB9B",
"U c #FFBB93",
"Y c #FFBF9F",
"T c #FFC7A7",
"R c #FFCFB3",
"E c #FFD7BF",
"W c #C3C3C3",
"Q c #FFDBC7",
/* pixels */
"22222222222222222222222222222222222222222222222222222222222222222222222222222222222222222222222222222222222222222222222222222222",
"<<<<<<<<<<<<<<<<<<<<<<<<<<<<<<<<<<<<<<<<<<<<<<<<<<<<<<<<<<<<<<<<<<<<<<<<<<<<<<<<<<<<<<<<<<<<<<<<<<<<<<<<<<<<<<<<<<<<<<<<<<<<<<<<",
"jjjjjjjjjjjjjjjjjjjjjjjjjjjjjjjjjjjjjjjjjjjjjjjjjjjjjjjjjjjjjjjjjjjjjjjjjjjjjjjjjjjjjjjjjjjjjjjjjjjjjjjjjjjjjjjjjjjjjjjjjjjjjjjj",
"kkkkkkkkkkkkkkkkkkkkkkkkkkkkkkkkkkkkkkkkkkkkkkkkkkkkkkkkkkkkkkkkkkkkkkkkkkkkkkkkkkkkkkkkkkkkkkkkkkkkkkkkkkkkkkkkkkkkkkkkkkkkkkkk",
"gggggggggggggggggggggggggggggggggggggggggggggggggggggggggggggggggggggggggggggggggggggggggggggggggggggggggggggggggggggggggggggggg",
"1111111111111111<:;::;:<1111111111111111111111111111<:;::;:<11111111<:;::;:<111111111111<:;::;:<1111111111111111111111<:;::;:<11",
"::::::::::::::-X;:X.X-:::;--------;:::--::--::----::;:X.X-::::--::XX;:X.X-:::;------;:XX;:X.X-::-;::;--;::;-;:--:::::;;:X.X-::::",
":::::<<<<<<<<<-X<2X.X:2::;--------;:::--::--::----::<2X.X:2:::--::XX<2X.X:2::;------;:XX<2X.X:2:-;::;--;::;-;:--:::::;<2X.X:2:::",
";;;;:122222221;:2k:X:1k1<:;;;;;;;;<222;;<1;;<1;;;;::2k:X:1k122;;12::2k:X:1k1<<;;;;;;<<::2k:X:1k1;<22<;;:22:;<2:;<222212k:X:1k1<1",
";;;;:122222221;:2k:X:1k1<:;;;;;;;;<222;;<1;;<1;;;;::2k:X:1k121;;12::2k:X:1k1<<:;;;;:<<::2k:X:1k1;<22<;;:22:;<2:;<222212k:X:1k1:1",
";;;;:12222221<;:2k:X:1k11:;;;;;;;:<221;;<1;;<1;;;;::2k:X:1k121;;12::2k:X:1k11<:;;;;:<2::2k:X:1k1;<22<;;:22:;<2:;<222212k:X:1k1;<",
";;;;:<2222221<;:2k:X:1k11<;;;;;;;:<221;;<1;;<1;;;;::2k:X:1k121;;12::2k:X:1k111<:;;:<12::2k:X:1k1;<22<;;:22:;<2:;:222212k:X:1k1;<",
";;;;:<1222VVVVVVVVVVVVVVVVVVVVVVVVVVVVVVVVVVVVVVVVVVVVVVVVVVVVVVVVVVVVVVVVVVVVVVVVVVVVVVVVVVVVVVVVVVVVVVVVVVVVVVVVVVVm2k:X:1k1;<",
";;;;:<1222VNNNNNNNNNNNNNNNNNNNNNNNNNNNNNNNNNNNNNNNNNNNNNNNNNNNNNNNNNNNNNNNNNNNNNNNNNNNNNNNNNNNNNNNNNNNNNNNNNNNNNNNNNM>:k:X:1k1;<",
":;;;::1122VNMMMMMMMMMMMMMMMMMMMMMMMMMMMMMMMMMMMMMMMMMMMMMMMMMMMMMMMMMMMMMMMMMMMMMMMMMMMMMMMMMMMMMMMMMMMMMMMMMMMMMMMMM>-1:X:1k1;<",
":;;;::<122VNM>>>>>>>>>>>>>>>>>>>>>>>>>>>>>>>>>>>>>>>>>>>>>>>>>>>>>>>>>>>>>>>>>>>>>>>>>>>>>>>>>>>>>>>>>>>>>>>>>,,,,,NM>-1:X:1k1;<",
"1<;;;:<<1;VNM>oooooooooooooooooooooooooooo-----------------------------------------;;;;;<<<<<<<<<<<<<<<<<<<<<<<<<oBNM>-1:X:1k1;<",
"1<;;;;:<<;VNM>o555555555555555555555555555555555555555555555555555555555555555555555555555555555555555555555555555VNM>-1:X:1k1;<",
"1<;;;;;<<;VNM>o588888888888888889779887787889897877887890867888798878788889887998779897798877878898887888777078978VNM>-1:X:1k1;<",
"1<;;;;;::;VNM>o588888887979788897997879989788788787898877798988878887978878779888878879978799897887878778798787889VNM>-1:X:1k1;:",
"2<:;;;;;:<VNM>o587778778787977978798798878998999089879766655433#######56778888899998797987988789989787888888888787VNM>-1:X:1k1;:",
"21<;;;;;:<VNM>o58888898888788888887888778988788777886566544443###OOoooo@@#5897778887998788877898878889877778778888VNM>-1:X:1k1;:",
"22<;;;;;;1VNM>o5898878888897978787888788877707897865555775555544#@@OOOOOoo@#58978887877888788877707787708888988888VNM>-1:X:1k1;;",
"22<:;;;;;1VNM>o588889798878878908878787787987878665579J97775565543####@@Ooooo#587888888787877879878988979887887978VNM>-1:X:1k1;;",
"111<;;;;;2VNM>o587797877888899787787878888888885559K9K9775557675543####444#@@Oo#5789887878788888888797978889799788VNM>-1:X:1k1;;",
"112<;;;;;2VNM>o58888888888876787987889877778778588J98775657757755543###4554##@ooo#58788788987777877878797797878897VNM>-1:X:1k1;;",
"1121<:;;;2VNM>o58978789978799897889787708888986666558755557766775554##4555544#Ooooo5988978770888898888788888889879VNM>-1:X:1k1;;",
"1122<:;;;2VNM>o5878908878887887877898897988788vZAvvk5655667755577554##5566535#@Ooooo577898897988788888979787897987VNM>-1:X:1k1;;",
"<1221<;;;2VNM>o5899787988888887998879797888979RIPGFAv565555765588555o#55757#33#@ooooo58879797888979887887890887788VNM>-1:X:1k1;;",
"<12221<;;1VNM>o586787978888878878888787977978GEERGHCZv534<;555888854o+77757#54#@+oooo#8887879779787788789978799887VNM>-1:X:1k1;;",
":12222<<;1VNM>o589897888777887888878887888888RQRIUPHDZc51jj<65788754o#77888+53@OOooooo5788878888888888877787977879VNM>-1:X:1k1:;",
":<22221<:<VNM>o58887878888879797788878979787YQTRTUTYHDZ5gxj255557554o+55757++@oOoOoooo#888897978789978799897888888VNM>-1:X:1k1:;",
";<122221<<VNM>o5888799789798797777888788789JEEIUTTIUUHAnxACk#3444533oo#4554#OOoOoOooooo888788789088788878878788898VNM>-1:X:1k1:;",
";<1222221<VNM>o5878878788977798980878888997YTETTTUTYGFFACAFk##344353oo+#444#+Oooooooooo878888997879887888879978877VNM>-1:X:1k1:;",
";:11222211VNM>o5887888987899978877888877878RETUTITTYUFAZZAAz###44453oo+#####OOooooooooo888887778797788887887878899VNM>-1:X:1k1:;",
";:11222221VNM>o589797788877778879889787998URRRTTYYTGFSAAFDSx####33##o;##3+#@Ooooooooooo897879989788877788788897787VNM>-1:X:1k1:;",
";;<1122222VNM>o587977788878889797877988788RCvSTTTTUPFDFADZSc####3###o;+##3@Oooooooooooo778887887878888879797888977VNM>-1:X:1k1<:",
";;<1122222VNM>o587989878898888979988878888j.okCFGIGDDSDDFHFv2222222221###oOooooooooooo#888888887997897987977787787VNM>-1:X:1k1<:",
";;:<122222VNM>o5897887978879877977888888788oojAFDUUDADSDHFUvvcxcvvvcvCk2;ooooooooooooo3878788788787889787989878988VNM>-1:X:1k1<:",
";;:<112222VNM>o5878879788898789799787778878j; lZZGIPFDPSGUHGDDDADSvFCvxx2;ooooooooooo#6877778878889878999788798779VNM>-1:X:1k1<:",
";;;:<12222VNM>o588979799879797887888808797AkjovlvFTYGGHUYUFHAFAACSACTTPZg2-ooooooooo#58888887979778887787887978987VNM>-1:X:1k1<<",
";;;:<11221VNM>o58889797788778989888897987KUl<2CxFAUPTYGUPSPFFACASCSTHCCFC1<ooooooooo478879798797878887888979898988VNM>-1:X:1k1:<",
";;;::<1111VNM>o5887797897898888877888977KTHxC1nFTTYYITTGPPFSACFCCCAFxZHGS<<Xooooooo3797888977798987889888897978788VNM>-1:X:1k1:<",
";;;;:<<11<VNM>o587897997897787778978789KTHAvAUFGUERTIIPUFAAZZCvCvAAk<<xHS<;-ooooooo5789787897978879788798789787878VNM>-1:X:1k1:<",
":;;;::<<<:VNM>o589788789877797888788877RUFZvcGTTEEERTPPHFDZSCZCvAvClxh2HC<;-oooooo#8987888777788797888987897998888VNM>-1:X:1k1:<",
":;;;:::<::VNM>o588989888889879779888878HHDCAlZPEEERIHHFFAASvACCZCCCvxAvHv-;;-ooooo59988878788898989987979788788888VNM>-1:X:1k1:<",
":;;;;::::;VNM>o58888878888787888888889888lckxvFIRTYPFDDFAZvAvCCvCCvlUAACx--<-oooO#87898888988889897788778989887879VNM>-1:X:1k1:<",
"::;;;;::;;VNM>o58877888888797978889788798#O#vxvPGPGDFFFAvCAvvZvvvCvAZSAl2-:<-ooo+588778878879878978978988888788887VNM>-1:X:1k1:<",
"<:;;;;;;;;VNM>o588897778778787977978889874O#DZSPPPFAAAAACCvCvcvcvvZACCx2--:<-ooo+778899788898789799789778787877788VNM>-1:X:1k1:<",
"<:;;;;;;;;VNM>o58788888898888788888887979#O#GCDYPPFAFSFSCvAvCxxxllxcxk<--:<<-oo+5899877898797978878987779788897998VNM>-1:X:1k1:<",
"1:;;;;;;;;VNM>o58987988788888979787888778# ovCFYGUHFADACAZxvkxkjhhhkg---:11<-X<58887779878877898988888987977978787VNM>-1:X:1k1::",
"1<;;;;;;;;VNM>o58788888979887887890878988822lvUPYIGHDAAFZCvxxljjhkjgh2<<g22<--:58879887897898888878888787888888888VNM>-1:X:1k1;:",
"1<;;;;;;;;VNM>o58977779787788889978789778xccxvSAHPGFFDDCCCcxl2hjkjg2hkggh21<--179988787878977877787778889797878998VNM>-1:X:1k1;:",
"11;;;;;;;;VNM>o5879988888888887678798770xAGGCFFFFHUFHFAACCxxjkkjjg2gkxxlh21<--<98778888798770889889898878878908888VNM>-1:X:1k1;:",
"11:;;;;;;;VNM>o5888897878997879989788897xAGGSAAFDFPHHDFACvclkjhjj2gjxxxkk21<--<78887887888897788887778788898787998VNM>-1:X:1k1;;",
"11<;;;;;;;VNM>o5888878908878887887877879cCGFDSAAFDPPFSZvcclxljlljjlxvccx22<;--<k7799780877879987789888888768879778VNM>-1:X:1k1;;",
"<1<;;;;;;;VNM>o58888997879888888879997987xnFSAZZAAFFZACvvlxxjlklxxxxccxj2:;--<jkk977787799798788987789887998978888VNM>-1:X:1k1;;",
"<1<:;;;;;;VNM>o588886787978888878878897797xvCAZCvAAAAvxxxjkkljklcvccck2<;;-:hjhj1k98988988977978788977888788787888VNM>-1:X:1k1;;",
":11:;;;;;;VNM>o5888898978887778878887888799cxvvCCcCcxkljhlxxkhkvZCvck2<;<2jljh121k77977877888799978899788888799778VNM>-1:X:1k1;;",
":<1<;;;;;;VNM>o58888887878888879797787988787897llcxjhljlxxzlkkxCvvcj1<kllxljh<1<2j79788888798878789787988878878778VNM>-1:X:1k1:;",
":<1<:;;;;;VNM>o5878788799789798797778877987878789jllkzxvczlkkxxCCvxjkkxljlhhh2222227789788877987878789777887888998VNM>-1:X:1k1:;",
":<11:;;;;;VNM>o5888878878788977798988888788898988878xxcnclkjlvZFvvclxxljlhk2h121;212j87888888788898988888797977888VNM>-1:X:1k1:;",
";<<1<:;;;;VNM>o57887878889878999788787888888788798788vvCcxkxcvACCvkljjlljjl2211;112h22j888788888878879879879777888VNM>-1:X:1k1:;",
";:<1<:;;;:VNM>o597809797788877778879888887987889779889CnvxxvvASvkjkjlxkjxxkl2<<1hjhh2h12j8888879878897797779898878VNM>-1:X:1k1:;",
";::11<:::<VNM>o57787797778887888979789889878877788787xvxxlvxCZvxkklxjxlxkl2;;;222hh222h122j88987888778889897887998VNM>-1:X:1k1:;",
";::<11<::1VNM>o5898879898788988889798788787887878788vxjxxlcvCvhkkcxkxxxx2:::12lxxxxxlkkhhh22j787887878777778879788VNM>-1:X:1k1:;",
";;:<11<:<1VNM>o579779788797887987797898888888978888vxh<jlvcxljlccccvvv2<:hlkkccCvvxcCvvxlljh22j8889788878889897998VNM>-1:X:1k1:;",
";;::111<11VNM>o59788788797888987897977799887879888vxj2<<jxvllccvCxcx2:<2klcCvZCCCvCCvCCZbbxlj222j87988898888989878VNM>-1:X:1k1:;",
";;;:<1111<VNM>o5778989797998797978878898777879788vx22221<cvcvvAvcv2<:hlxcncvvccxCCAvvCCCCCAbxl122j9788887987797888VNM>-1:X:1k1::",
";;;:<<11<<VNM>o588878897977887789898887787889897vljk211jcxlvCCCxk.:1klvvvvCvCvCZvvvZCZCvZCAvxvlj22j978789878979898VNM>-1:X:1k1::",
";;;;:<<<<:VNM>o59779877978978988888787998978878zlk2hj2xvcCAAAAc2.<hklvxvvcvvcCvvvCvCvcZZvCvCAcxh2<1j87879797887888VNM>-1:X:1k1::",
";;;;::<<::VNM>o5779778979978977877787988789989lkkhj2kCvAAAZACv1.<<2xvcvCvvCCCCvCCCZvvCvZCvACCccxj<<2j8887789898888VNM>-1:X:1k1::",
";;;;;::::;VNM>o589899788789877797888887789887lj2212lCCASFFFCv1.:2jxcxvCvZZvCCvcccxlkcvvlvccxcvvl2-;<<2789888887888VNM>-1:X:1k1:<",
";;;;;;::;;VNM>o59777898988888987977987888777721112xCCASFFFCx2.<j2lvxCvvvvcvcvvclxlllxlxxljhkjjhj2l2;;;297787778778VNM>-1:X:1k1:<",
";;;;;;;;;;VNM>o579888888788887878888787787982X<12hl;jFGPSZv2.-<hlcvvvvvZCZvvxxlxlllclxxllhjh2k2<<1j2<;<77088988998VNM>-1:X:1k1:<",
":;;;;;;;;;VNM>o5878887778777888979788788888h<;.<2kjX.hAPAc1.;<2lvcxCvCClvxklxxxllklxljhxllkxxjj22;;<<;-87978889798VNM>-1:X:1k1:<",
":;;;;;;;;;VNM>o5778888988989887887898987772h::;;2l2...2Av2X-1hxccvZvvCvCxxl2h1jxkxklljkkxlxlkhh22<-.;<;88797797878VNM>-1:X:1k1;<",
":;;;;;;;;;VNM>o59897788887778788899787788lkjj2;2xj:12..<;--2hxcCZCvCCcclxjkj<:2kvcvcvvcvxvxkclxjj2<;.<;88788888888VNM>-1:X:1k1;<",
"::;;;;;;;;VNM>o58879987789888888767888979llhh2<2l2<2<2::<212kcvCvZACvvvcclh<<X;<jvccvxxcCvxxjxxjhh<::;;88979787898VNM>-1:X:1k1;<",
"<:;;;;;;;;VNM>o5879778898778988799899797xkkk222<j<22212211jvCvZSCZZCcvclx22<X;2vcvcCCCvcvCxxkvclx1<<-;;87887890888VNM>-1:X:1k1;<",
"<:;;;;;;;;VNM>o5799897778897788878877879jjlhh121k:2lxxljkcvvxZACCcvAvxxxkh<:.2klvxCZClvCZxxkxxcxk2:<;;-88889978798VNM>-1:X:1k1;:",
"<::;;;;;;;VNM>o5787088889888878888878878xlkjh221;hjxcxxxlvccccvxlvACxvxkj2<X.k2vvvCvcvCvClxhkvvll2<<;-:88876787978VNM>-1:X:1k1;:",
"1<:;;;;;;;VNM>o588879887888889797888889kxjjhh222<2kxxxlccxccjxhjkcvvvkxjh<-..<vcvZCxvCACvlxjjvcll2<<;;;98799897888VNM>-1:X:1k1;:",
"1<:;;;;;;;VNM>o598878889798878878988878xkkllh2222xlllxvcCAAFCccvxh2lxxl2<<-..xxcvCccvAZCvxk2lxcxl2<<;;;78878878788VNM>-1:X:1k1;:",
"1<::;;;;;;VNM>o587897797877888899787888xxljj22222lxxlvAACZFCvcvxvl22hx2<<;..jvvZvxcZCCAvllh1lvCkj2<<;;;88888879978VNM>-1:X:1k1;;",
"11::;;;;;;VNM>o58988888888888876788888xlhjk2j2222cxxCAAAAAFvCcvnvk2jlj11:-XxlllxvvvvFSxvxk22lkvl22<<;-:88887887878VNM>-1:X:1k1;;",
"11<::;;;;:VNM>o58877978789978799898978lxckljh222jxlcAAAFFFSvvCvvj<2lkj2<1.jlxxlvcvCAACvxx211xvZxj2<<;;;77788788898VNM>-1:X:1k1;;",
"<1<::;;;;:VNM>o58888789088788878877798xkxljj2222xxxvSFFFFZvvvvvl<2xjk2<<<LKLLSCvCvZFCCvl222<xvSkh:<;;;;88879797788VNM>-1:X:1k1;;",
"<11<::;;::VNM>o59878997879888888878888xxxljkj222jlkvCcCCvvvvvvv2<hxh1<<<L9KLWWLLCCSAvcch11<<cCDkj<<;;-477987977788VNM>-1:X:1k1;;",
":11<::;;::VNM>o5978767879788888788888lxkjkkjh22lcxxkh-.;jlvvvcj<2jj<<<<K55+#++#LKpaCCx2211<<cZFx2<<;;:599777989878VNM>-1:X:1k1;;",
":<11<::::<VNM>o5778998978887778878887lklljljj22lllxkk22..;<lvCj-2k:1<<7K5  ++#+LKxiueh222<<<vSFx2<<;;;578999788798VNM>-1:X:1k1;;",
":<11<<::<<VNM>o589878878788888797988xcxjxhlh22jclcvvvCv--...<<-j2<<<85#W8  WLLLLLJlaie2211<<vFAx2<<;:;787777887978VNM>-1:X:1k1;;",
";:12<<::<<VNM>o579788879978979879788xhxk2ljj22hjxxCGFSx--zg2221j<<<8K7+WL5 6LKKJJJ9ipirr21<<vZDl2<<;-;787888979798VNM>-1:X:1k1;;",
";:121<<<<1VNM>o59788788787889777988xxvlxxlkk21xxvzcCGSC:-cxjjhl<<<q8K5O        +5996piurr1<<vCSlh;-<-;889888897978VNM>-1:X:1k1;;",
";:121<<<<1VNM>o57788878889878999787xxccvchj22xxkxCzCGAv<:vvhjj2<:wt8K55         #996uuuyr=2jvvxj2;;-X;988798779788VNM>-1:X:1k1;;",
";:<221<<11VNM>o5888797977888777788xlxlxxxj212llvcCGASFv2<czkjk<:wtuf8KJ975#O 85++996yyyyweq2jhj21:X--;778987897998VNM>-1:X:1k1;;",
";;<2221112VNM>o5977879777888788897lllxxxxx2h2cxvvCGGGFvj2xkhk<<wtyus8KJKKK7# 58##872ytrwwww=ljk2<;X.-;887979788788VNM>-1:X:1k1;;",
";;<1221122VNM>o5779779898788988889vcxlkkl222jkxcvvZAAFCcxjh<<xgeetuiaJK++++O 668877<reeeeqw==22;--..<;888778989888VNM>-1:X:1k1;;",
";;<<122222VNM>o5898997887978879877vllkhlk12j2xlccvCFSFvxljk<kxlkeetai79++###+577772rwwweqqq*q:;;;X.-<;878988888788VNM>-1:X:1k1:;",
";;<<122222VNM>o5977778879788898789xkxxckjxxjlxxvcvZCCZvjj<:SAZvvk<uuaa9J9J87777772wewee=q==*&$:;;-.-<6889778777878VNM>-1:X:1k1:;",
";;::112222VNM>o5798889797998797978cllkcjlllljlxcvvvcvvvjj<<kFAZCvccddai897777772rreeeqqqw=**%%:;;X-<<7887708898898VNM>-1:X:1k1:;",
";;;:<12222VNM>o5878888979778877898vxxxh22vcxxxkjhkjkjCvCFC2lxSAZvvvx2<uuppiyyeeerww=w=e==&&%%$$---<<27988977888878VNM>-1:X:1k1:;",
";;;:<12222VNM>o5778987797897898888vCcxxl2vvlllxjjhjjjcCGPvj-<lAAZCccl2:-uaapttyrreweeq===%&*&$$--<<<28778888888888VNM>-1:X:1k1::",
";;;:<11222VNM>o5989878979978977877CcnCxlvxxkxkkjllllkAHGIAx<-:xASvvvcl2:-uerree=reew===&%&*$$$.<<<<118877888898789VNM>-1:X:1k1<:",
";;;;<<1211VNM>o58879777887978888vCvCvccCvvvxlxxxllxlbAHGGAAl:<xAFSvxcvl2:.utrerrwwqqq==%&&%$%.-<<<22l8887878797978VNM>-1:X:1k1<:",
";;;;<<121<VNM>o587978889797998788cCvvvCvvvvxlklkxcCvSDHHAvSAzjcZDFSvcxkj<:.uwweqwqq*=&%&&$$%.-<<<112h8788998977898VNM>-1:X:1k1<:",
";;;;::<11<VNM>o579988888979778888vvvvCvZCCvxxxlxlCCSFFSvCvvAAcCSZAAvvkll2<:.weweq=w==&*&%$$.;<<<122jl8889788788888VNM>-1:X:1k1<<",
";;;;;:<1<<VNM>o57877798779789788877CCvCccCCCvcxcvvcZFASSZcCCCSADDFSvvllxj1<-%qe=wq*%&&%$%%.;<<<22hhj79877888797877VNM>-1:X:1k11<",
";;;;;:<<<:VNM>o58888987897997898889vvCx89vccvcvxlvvAFSAvvcvCCASCAZCvZxlxjh<-.eew==q&&&&%$.;<<<122jkxl7878878877978VNM>-1:X:1k11<",
";;;;;::<<:VNM>o598879797887898787787788879988vCCCxvSSCvxkvxlkcvAFACZvxx2h1<<-%q=**%$%$$$.-<<<:2jlllxc9798887888797VNM>-1:X:1k11<",
";;;;;;:<<:VNM>o587887789898888888888879887878nvCcvxZCvcxvxclxlkCvCvvvlxjh12<-.w*=&%%$$..-<<2122jhxcxc7977797978788VNM>-1:X:1k11<",
";;;;;;:<::VNM>o589889888887888888978887798788CCCCvZvvcvccxlcch2hhhhhj2h22212;-**&$$$$.<<<<122kklxxccv9798879778979VNM>-1:X:1k11<",
";;;;;;:::;VNM>o588777787778777888788888878889CSCCCvvvvccxccxxjhhhhj2hlj221222--%*$$..<:2122jkkxxxvvZv8878779897887VNM>-1:X:1k11<",
";;;;;;;::;VNM>o5888887878778788879888788888878vCFCvvCvvCvCvvcxvxvxlljhjkhjkhj<X%$$<h212hhjhxlxvvvcvZv9878997888889VNM>-1:X:1k111",
":;;;;;;;;;VNM>o59878887888888888978988888798788CccZvvZCCCCCCvvvvcxxlxxlhlljkj2<$$<2<2h2jlxxxxccACvCCv7798778878888VNM>-1:X:1k121",
":;;;;;;;;;VNM>o588888888888888888888888888888888888vCZZZZZZZCCZCCCCnvvvvxlzzzljg122ggjjkzlxvvvvCASSAv8888889798888VNM>-1:X:1k121",
"::;;;;;;;;VNMMBVVVVVVVVVVVVVVVVVVVVVVVVVVVVVVVVVVVVVVVVVVVVVVVVVVVVVVVVVVVVVVVVVVVVVVVVVVVVVVVVVVVVVVVVVVVVVVVVVVVVNM>-1:X:1k121",
"::;;;;;;;;BNNNNNNNNNNNNNNNNNNNNNNNNNNNNNNNNNNNNNNNNNNNNNNNNNNNNNNNNNNNNNNNNNNNNNNNNNNNNNNNNNNNNNNNNNNNNNNNNNNNNNNNNNM>-1:X:1k121",
"<:;;;;;;;;NMMMMMMMMMMMMMMMMMMMMMMMMMMMMMMMMMMMMMMMMMMMMMMMMMMMMMMMMMMMMMMMMMMMMMMMMMMMMMMMMMMMMMMMMMMMMMMMMMMMMMMMMMM>-1:X:1k121",
"<:;;;;;;;;>>>>>>>>>>>>>>>>>>>>>>>>>>>>>>>>>>>>>>>>>>>>>>>>>>>>>>>>>>>>>>>>>>>>>>>>>>>>>>>>>>>>>>>>>>>>>>>>>>>>>>>>>>>>-1:X:1k121",
"<::;;;;;;;;:X-XX-:XXX-:-XXXXX--------XXXXXXXXX--XXXX-:XXX-:-----XXXX-:XXX-:-XXXXXXXXXXXX-:XXX-:-XXXX-XXXXXXXXXXXX--XXXX1:X:1k121",
"<<:;;;;;;;;:;:--:1-X-:1:XXXX;;::::::;-XXXXXX-:::XX--:1-X-:1:::::;---:1-X-:1:XXXXXXXXXXX-:1-X-:1:-X-;::-XXXXXXXX--;:;--:1:X:1k121",
"1<::;;;;;;;:<1::2k:X:1k1;;;;:<<1111<:;;;;;;;<121;;::2k:X:1k1211<<;::2k:X:1k1;;;;;;;;;;::2k:X:1k1:;:<11::;;;;;;;::<<<::2k:X:1k121",
"1<::;;;;;;;:11::2k:X:1k1;;;;;:<<11<<:;;;;;;:<12<;;::2k:X:1k1211<:;::2k:X:1k1;;;;;;;;;;::2k:X:1k1:;;<11::;;;;;;;;::<<::2k:X:1k121",
"1<<:;;;;;;;:11::2k:X:1k1;;;;;;:<<<<:;;;;;;;:<12<;;::2k:X:1k111<:;;::2k:X:1k1;;;;;;;;;;::2k:X:1k1:;;:<1<:;;;;;;;;;::<::2k:X:1k121",
"11<:;;;;;;::11::2k:X:1k1;;;;;;;:<<:;;;;;;;;:121:;;::2k:X:1k11<:;;;::2k:X:1k1;;;;;;;;;;::2k:X:1k1<;;:<<<:;;;;;;;;;;::::2k:X:1k121",
"11<<:;;;;:<<11::2k:X:1k1;;;;;;;;::;;;;;;;;:<11<:;;::2k:X:1k1<:;;;;::2k:X:1k1:;;;;;;;;:::2k:X:1k1<:;;<<<::;;;;;;;;;;:::2k:X:1k111",
"11<<::;;::<<<<::2k:X:1k1:;;;;;;;;;;;;;;;;;:<<<<;;;::2k:X:1k1:;;;;;::2k:X:1k1::;;;;;;::::2k:X:1k1<:;;:<<<:;;;;;;;;;;;::2k:X:1k111"
};
