/* XPM */
static char *c867737fbb634ab0a92c017f74d3ec4emztjljrDMDkmpZ1p[] = {
/* columns rows colors chars-per-pixel */
"128 128 70 1 ",
"  c black",
". c #070000",
"X c #0B0000",
"o c #0F0000",
"O c #130000",
"+ c #1B0700",
"@ c gray12",
"# c #230B00",
"$ c #370000",
"% c #2B1700",
"& c #372300",
"* c #373700",
"= c #3F3300",
"- c #232323",
"; c #2F2F2F",
": c gray20",
"> c #373737",
", c gray23",
"< c #430000",
"1 c #4B0000",
"2 c #570000",
"3 c #630000",
"4 c #6F0000",
"5 c #770000",
"6 c #43331B",
"7 c #434300",
"8 c #4B4300",
"9 c #4F4F00",
"0 c #535300",
"q c #5F5F00",
"w c #6B6B00",
"e c #777700",
"r c #434343",
"t c #4B4B4B",
"y c gray34",
"u c #5B5B5B",
"i c #676767",
"p c gray45",
"a c gray50",
"s c #830000",
"d c #8F0000",
"f c #9B0000",
"g c #A70000",
"h c #B30000",
"j c #BF0000",
"k c #CB0000",
"l c #D70000",
"z c #E30000",
"x c #EF0000",
"c c red",
"v c #878700",
"b c #939300",
"n c #9F9F00",
"m c #AFAF00",
"M c #BBBB00",
"N c #C7C700",
"B c #D7D700",
"V c #E3E300",
"C c #EFEF00",
"Z c yellow",
"A c #FFFF57",
"S c gray56",
"D c #9B9B9B",
"F c gray67",
"G c #B7B7B7",
"H c #C3C3C3",
"J c LightGray",
"K c #DFDFDF",
"L c #EFEFEF",
"P c white",
/* pixels */
";;;;;;;;;;;;;;;;;;;;;;;;;;;;;;;;;;;;;;;;;;;;;;;;;;;;;;;;;;;;;;;;;;;;;;;;;;;;;;;;;;;;;;;;;;;;;;;;;;;;;;;;;;;;;;;;;;;;;;;;;;;;;;;;",
";;;;;;;;;;;;;;;;;;;;;;;;;;;;;;;;;;;;;;;;;;;;;;;;;;;;;;;;;;;;;;;;;;;;;;;;;;;;;;;;;;;;;;;;;;;;;;;;;;;;;;;;;;;;;;;;;;;;;;;;;;;;;;;;",
",,pGJLLLJLLJLJKKLJKKKKKKHDy;,,,,tttypDDDptt;;;iJJJKKKKKKKKKKKKKKKKKKKKKKKKKKKKKJJy,;;,ypDDi,,,,,,,,,,,,iDKKKKKKKKKKKKKJLJLJGp,  ",
",yDJGDGFFFGGSFFFSFFFSFSFSat;,,,,tpFLLJJHFDp;;iDJJHKHHHHFHFHHFGGFGFHHFGGFGFHGHHGGJD,;;pDFHJLJFyt,,,,,,,,GKGSFSFFFFSFFFFFFGGJFay  ",
",yDLGSFSGSFSFGSSFGSSFSSi,,,,,,,iFJLJGFFFFHSy;iFJHGGFFJFFDFFFFFFFFFFFFFFFFDDDGGDJDDi;,SHFFFGJLJFt,,,,,,,GKGaaSSFSSSSFSSGFFSSFpy;;",
",yDLGDSSDSFGSFSFSFSFGai,,--,,,iFJGFGFFFGGHDp;;DJHGFFFFFFJSFSSDDSFSFSSDDSFDDDaSSHHDi;tDHGFFFGFGJFi,,,,,-tFKFDDSFSSDSFSSDSSDSSpy;;",
",yDJDDSGSDSDSSSSSSSai,----;,,,pJHDDFFFGGGFHDi;iFHGFHDFSJFHSaDSSaDHSaDSSaDFaSFSFDDi,;DHFGGFFFDDHJpp,,,,--taDGDSSDDFSSDDSGSSDDpy;;",
",yDJDDDFSFGSDSSGSai,---;,,,,,,pJHHFHFHFFGGHDS;yDJDFFGSDDHFFSSSSSaFFSSSSSaaSDSFSSDy;tDHGFFHFHFHHJpp,,,,,,-ttaGGDDSGGDSFSFDSSSpy;;",
",yDHSSSDFSFSFSDSit,-;ttpSSp;,;yGFFHDDFHSHFFHDi;pFHFFFFDHDSDSFDaSSSDSFDaSSSSSSaSDS,;DHFHSHFDDHFFGyi;;pSSpt,,yaDGGDSFSFFFDSDSDpy;;",
",yDHFaDDFSFGSDSiy-;,tpGJJJGi;;ypGFFFSFSDDFFFDp;iSJFDFSDFDFDFaFSSFFDFaFSSFDSSFSaDi;tDFFDDSFSFFFGpy;;iGJJJGpt,ySDHGDSFDDSFDSDSpy;;",
",yDHSSDSDFSFDSiy--tpFJGFFGHDi;;tpGDFGDSGGGHHDat;pFHFSFFDDSaDFSSaSSaDFSSaSSFFDSSF,;aDHGGGSDGFDDpt;;iDHGFDGJFpttySHGDDSSaDDSSFpy;;",
",yDHFDDDFSDDSiy-;,pJGGDDFSGHDi;;tpFFFFGDDHDDFSi;iSJDFFDSFGSFSaSFSaaDaFDDFDSFDDSi;tSFDHDDGFFFDpt;;iDHGDFDDFGJp,,yDHFDSDSSSSSSpy;;",
",yDHSSDSaSSFit--tpLFDSDFDDSDJSi,;tpSDFDaGFFHHSat;pGHSFFDDDDSFSaSDaSSaSaSDSDFDSp,;aSHFFGaDFDSpt;,iSJGDDDDDSDFJp,tpDGFDSDaSDaFpy;;",
",yDHDDFDDSSit--,pLFDSDSDDFDSFJSi;;tpSSFFSDSDSSSp;yDJFSDSFFSSDaSSaFSFSFSSaSSSSSy;tSSDSDSFFSSpt;;iSJFSDFDDSDSDFJp,tyDHDSSDSSSSpy;;",
",yDHSSDSSDii--,pGGFDDFDSGDFFDFJSi,;tpSSFaSFSaaSat;pFFDFDDFaSaSaSSaFFSSaaaapaap,;aSaSFSaFSSpt;,iSJFDFFDGSDFDDFGGp,tiDFSFSFSFFpy;;",
",yDHDSDSapt,-,pFJFDDSSDGDSDDDSFHSi;;tpDDDFSDSaaSi;ypDaDFDDDDaSFSFSDSFSSapaaaSy;tSaSDSFDDDpt;;iSHFSDDDSDGDSSDDFJFi,tpFFDDDSDFpt;;",
",yDHDSDFpyt-;tDFGDDSDFSDSDDSDSFFGSi,;tpSSaSaGSDDit;tppaaSaSaSaaaSaSSpDpaapppp,;iDSGaSaSSpt;,iSGFFSDSDDSDSFDSDDGFat,yDHFDFSDFpy;;",
",yFFSDFSy,;-,tSDDSSSSFFDDDFaSFaFSGSi,;ypSDaDSaaaiy;,tyyiipiipppiipppiippiyyt,;,iaaSDaDSpy;,iSGSFaFSaFDDDFFSSSSDDat,,pDGFHSSSpy;;",
";tDFSDDi,;-;,yaSDSDFDSSSFSFSFSFaSFFSi,;,paapapiyy,;-;;,,tttttttttttttttt,,;;;;yyipapaap,;,iSFFSaFSFSFSFSSSDFDSDSay,,tpDFDDDFpy;;",
";tSFFDpt;--;,ypaaDGDFDGSSFSFSFSFFSSFSi;;,pipiyy,;;;;;----------------------;--;,yyipip,;;iSFSSFFSFSFSFSSGDFDGDaapy,,,ypDGDFFpt;;",
",,pppay---;;,typaaDDFSDGSDSDFaSDSFSSDat,;,tt,;;;----- @@@@@@@@@@@@@@@@@@@@@@ ->;;;,tt,;,taDSSFSDSaFDSDSGDSFDDaapt,,,,,ypSHFDpt,,",
",,tyyt;-ypp,;,,typaDSFDDSaSSaSaDFSFSSDyt;;;;;@@@@@@                            ----,,,;tiDSSFSFDaSaSSaSDDFSDapyt;;,,,,;ypaappt,,",
",,,----pJJGDy;;;,tiaaSFSFDaFSFSSSSaaaiyt--@@@@@@                                  -----yaiaaaSSSSFSFaDFSFSaai,,;;yDGGpy,yyyyy;,,",
",,,,,;pLJHHGGDy,;,ttiaaaaSDSSSDSSDapytt,--                                            -iaiypaDSSDSSSDSaaaait,;,yDGGFDayy;;;;;;,,",
",,,,,pLJHFFDDGGDy;;,tyipSaDaDSSaSapytt,-                                              -;iiyypaSaSSDaDaSpiyt,;yDGGDDFGGapy,----,,",
",,,,,DLHGDGFFDDGJDy;,,typaaDaSaSaytt,,-                                                -,yyttyaSaSaDaapyt,;yDJGDDFFGDGDpi,;---,,",
",,,,pLJDFDFDDFSDDGJFy;;typppaDapytt,--         oo...ooooooooooooooooooooo       oooo.   -;,,ttypaDapppyt;yFJGDDSFFFDFFFai,,---,,",
",,,,DLHFDDGDDSDFSDSGJDy;,tyippitt,;@       .     .. -@@@@@@@@@@@@@@@@@@@+ XX--X          --;;,ttippiyt,yDJGSDSFDSDDGFDFDiy,---,,",
",,,,JJGDFFDGDFFSDDSDSGJDy;,ttyt,,;@          o@@-@ -;;-;;-;;;-;--;--;-;@@@.-,,-   XX       --;,,tytt,;DJGSDSDDSFFFGDFFDGpy,;--,,",
",,,pJHGGSDDSFSFFDFGSDFGJJp;;,;;;-@        ..o@,>;-.-,>>>>;>;;r>>r>>r>r>;--XX--XXX   XXXXXXXXX-;;;;,;pJJGFDSGFDFFSFSFDSGGap,;--,,",
",,,DJGFSGDSFSFDFGSDFFDDFHFp;---- XoX   oXX..@>t,;@.-t,>r,,r>r>rr>rr,r,,;-@X  -@@@@@@XXXX@@@@XX-----pJHFDDFFDSGFDFSFSDGSFDpy,--,,",
",,,JJDDSSFDSFDFSHGFDSFFSHDa;-+    X---;--X..tt,,;@.-rr>,>>,,rrr>rr,r>>r;-@X @>ryytr,-XXX@-;@@XoXXX;GJHSFFSDFGHSFDFSDFSSDDpy,--,,",
",,,JHSSFDDSSFSSFDFSFDSSFFSi,-XXXX---;;,;-X..tt,,;@.->,r,>,>rr>r>>r>,r>>;-@X@rttr,,r,,@X@-;;--@ooX-aaGHFSSDFSFDFSSFSSGDFSSai,--,,",
",,,JGDFGFSDFSFFSSDFSFSFFSay,-X .---;,r,;-X..t7ww7@..-;;;;;;;;;>>;>>>>>>-@XX@yr9wvbbqr@X@;,,,;-@XX-paSHHFSFSFDSSFFSFDSFGFDai,-;,,",
",,,JFSDFDDFDDDDSFFSFSDFDai,;+XX---;,r,,;@X.wmVZMw7..X@@@@@@@@@--@------@XXX@y9nMMBCCNqX@;trr>;-@X;yaaFHFDSFSFFSDDDDFFDFDSai,--,;",
",,,DFFDDSDDSDFSaDSFFSDGapy;-+XX--;,r,>>;@wBAAZZBmwq...XXXXXXX--XXXXXXXXXXXX@ynmmmmMBCCb@;t,>>>;@oX;yppHGDSFFSDaSFDDFDFDDFay,--;;",
",,,yipaaSSDSSDSSSDSSFGDai,@XXX---,rrr>>7mAAZVMMvbNe.........-,,-XXXXXXXXXXX@yMbq79wbmBCb;t,>>>>--oX;tiSHGFSSDSFaDFFDDDaSayy,--;;",
",,,,yyyyipppaaDDFDDFFFSpy,@X X--;,,,>;7MAZZNmeq*qbe------XXXX--XXXX--------XyMb79w*9vmBCbtr,>>>;-@X;,ypFHFFFFFDDaapppyyyyy,,--;;",
",,;;;;;;;,,ttyyippaDDDay,-@.X---;;>>>,vAZCmvq%%%qeq--,r>;--XXenmMNNq*ytttr-Xymb9   *7wmCVb,,r>>;;-oX;tiaHFDappyyytt,,;;;;;;;;;--",
",,,,,,;;;;;;,,,,ttyyiiy,;-..X--;;;;;,wBABmq*%o%%qe9>yttrtyy9bNCPPPPZVerr,,-XrbMq    &7emVVwr>r>>>--X;;tiyyyytt,;;;;;;;;;;;;;;;--",
"t;,pGKHFSat;;;;;;;;,,tt,--  X--;;;>r7bCCMe*%oo%=ev7ttttrrrrvNCPZZVM9nMNNer-XrvMe     &wbBVM7>>,;>;-+X;,,;;;;;;;;;;;;tSSDGJGp,;--",
"t;DHHHFHGHJJGDapt;;;;;;;+.  ---;;;>>7MVVb9q#oo%8vv7ytrr,,,>bNZZZCCCCMmPVNv.X,wmvo   #%8bVVM7rrr>>;-XXX;;;;;;;;tpaDGJJJGGGDFay;--",
"t;DKFSSDDFFFGHJJLLKGDy>;@o..---;;;>*wVZMenq%oo%qnm7trr,,,>>bNZCCVVVVVVVBNN.X,qmn+   %%*eMZVw*,r>,;-XXrtipDDGKLLJJHGJGJFFSSFpy;--",
"t;DLSSDSDDSDDSDFGGGGJprr;@..---;;;,7bVVmnvq&##%qmMq,,,r,,>;bNZCCBme88>;>8v.X;qMm#  ##*9emZVb7>>rr;-X:iiDGLJGGJJFDSFDSGSSDSSpy;--",
"t;DJDDSSGDDFDDFDGSDDFptr;@..----@-*7MZVnMvq*%%#0mNe7>,r,,>;bNACVNe w ..;,;.X;wNm%  %%89enZZM7*,>r-XX,tiaHKFDDSDDFDDFDDGSSDDpy;--",
"t;DJSSDDFSDSFFSFSFDDDar>-@...-----*wNZVnMeq==%#=mBMe7-;;;-,vNAACNv9 n    ;.X&bCm&  %*8evmZZNw*>;--XX:tyiHJDDDFSFSFFSDSFDDSSpy;--",
"t;DHDDDSDSSDSSFDDSDDFar;@@..... ..*wBZVnMbq==%#&nVBMww   wmMBAACBNvq9n9    9bZZn= #%9ebeVZZBw*---XXX,:tiHJFDDSDDFSSDSSDSDDDpy;--",
"t;DHSDSDFSFSDFSFDaDSSar;@@..... ..*vBZVnnbq=&%&#vVBMmMBmMBVZZAAZCBNmvbMBZZZBBZCb8 %%9wbeBZZBv*XXXXXX::raHKSSDaDFSFDSFSFDSDSpy;--",
"t;DHFDaaSDSDDSSDSDDSFar--@..--. ..*vVZVnneq=&#+#vVVNNVCCCZZPPPAZZZZBMMBVmnMNBBBv8%&**wevNVZVv*XXXXXXr,,DHKFSDDSDSSDDSDSaaDFpy;--",
"t;DHSSaDSaDSSSSaSFSDSpr;-@.-,,- @@*vVZBnvwq==#%#=mMMNVCZPPPPPPPAZCCCCCCBmbwevew8*&*99wwnNVZVv*oo--XX:,taHKSDSFaaSSSSDaSDaSSpy;--",
"t;DHFaDSDSDSDSFSSFDSSar;-@.-;;- ->*vVZBnvwn=8&%+&=00vVZPZAAPPAAZCCVVVVVNmb9%%%%%**99wnwnMVZVv*oo---Xr,tiHHSSDFaaFSDSDSDSDaFpy;--",
"t;DGSSSSaSaSDaSSSFSDSar-@@.-;;- @;*vVZBvnwB797&%+#&==VZZZAAAAAACVVBBBBBNnv9%%%%=q799wBwnMVZVv*oo-;-X::,pHKSDSFSaSaDSaSaSSSSpy;--",
"t;SDFaFDSaDaGSDaSSDSSar@@@.-;;- @;*vVZBvnwM7e9&7%%%+=BZZZAAAZZCVNNNNNNmmve7%&=9wq79ewMwnbVZVv*oo-,-X:;:iHHSSDFSaDSGaDaSDFaFpy;--",
"t;pSDSDSDFaSaFaSDaSaai>;-@.-;;- @;*vVZBvvnnwnw&e7&%%%BZZZAZZCCVMbMMMMmmnw9%%=77qe7*nwnnnvVZVv*oo-r-X-rriHGSDSaDSaFaSaFDSDSDpy;--",
"t-ipppppaSapSpppppiiiy;>-@.-;;- @-*vVZVnvNnwew9me==&%MZZZZZCBNmnwmmmnnbvq7%&9=7em97ewvNnvVZVv*oo-,-X-:yrSappipppppSpaSappppiy---",
"t-tiyyiiiiyyyiipiiyyyt;-@..-;;- @-*wBZVMnNnwwwqe777=7vBZZZZVNmne9bnnnbew9%%=7*97eq7vwvNnbVZBe*oo->--X-,typyyiiipiiyyyiiiiyyyt---",
"t---------------------@....-;;- @-*wBZVMnVnwnwmqw79q7qmCZZZBMnbbebvveeqq*%%*997wqm*nweVnMVZBw*oo-;---XXX------------------------",
"tt,,,,;;;;;;;;;;;;;;;;@.X...--. @-*wMZVNnZnwnwmqnwq97*eVZZZBMnbvevvewq97%%%*9q8nqmwnweZvNZZMw*oo-;---O-;,tyyyyyyyyyyyyyyyyyt----",
"ttpHJJKLLLKJJJJJLJLJGp;-@X..... @@*wmZVNnCnwNnqww7eq9%9MZZCBmnbeweeew98*%%XXqe9wwqnNwwCvNZZm9*oo----O-,tpSGHKLLLKJJJJJLJLJGp,---",
"ttHLJGGJJJHHGJGJGGGJFarr>@..... ..*7bZVBnNnnNvne7**eq%*mZCBmnnbwqwwq98=%%XXXe9*7envNvwNnBZZb7*oXXXXX-yiiSHJGGJJJHHGJGJGGGJFay---",
"ttHKFDDSDFDSFDSGFFSSFp>>r;..... ..*7vZZBnnvBNvmbw  *9*%eZNMmbbeq9q977=&%XXX-7*&wbvvNvwnnBZZv7*XXXXXXtiyyFGFDDSDFDSFDSGFFSSFpy---",
"ttHJDDDFSDFDDFDDSSDSSp;;>;..... ..**wZZVnNvBNvwmv  *7*%eZNeeewq9977==&&%XX@;&&&vvwvNmvNmVZZw**@XXXXXtyrtHGDDDFSDFDDFDDSSDSSpy---",
"ttHJFDDSDFSFFSDSGSSDDp;@;;..;,,,;.X*wBZBVZnBBv*9*XXX*7%9ZVv9========&&%&XX;t>;;qvqnmmvZmBZBw*-->-XXX,rtiHGFDDSDFSFFSDSGSSDDpy---",
"ttHJDDDFSDFSSDSSFDDSSp;---.@,;;;;.X*wMZBBZnBBv**XXXXX*X%ZZmq&&&&&&&&+%7qXX-,;;->q*nmNnZmBZMw*-;t;-X-,ttpHGDDDFSDFSSDSSFDDSSpy---",
"ttHJFDDSDSDFSFSFDSDDDp-;-@.;;-;;;XX*qnZBBZBZBvXXXXXXXXX%CVmw*&%&*&+++9ebXX-,,r,rr;nmBmZMBZnq*-,t;-X-ttySHFFDDSDSDFSFSFDSDDDpy---",
"ttHKSSDaDFSFDSFSFDSDSp@@;@.;-;;;;@X*9eVZNVnZBnX..;tyit,%VNnq7&%***&+9ebBXX->,,r>>-nmZnVMZVe9*-t,;-XXyrySHFSSDaDFSFDSFSFDSDSpy---",
"ttHKFSDDSDSSDDSDSaaDFp>-;-.;--;;;;XX7qmZBNnZmvXX;trrrrr,mNn97*&*&&*7ebMBXX-,,>,tt-nmZnNBZmq7--,;--XXyttpHGFSDDSDSSDDSDSaaDFpy---",
"ttHKSDSFaaSSSSDaSDaSSpr>--.-----;;XX77vVZNnVmvXX;rr,rrr,bVn77***&&*7vmNbXX;-;--;-@nmVnNZVv77-----XXXtyypHGSDSFaaSSSSDaSDaSSpy---",
"ttHHSSDFaaFSDSDSDSDaFp>@-@.--------XX7qMZCmmmvXX;>>,,>,,wBnw7**&&&&*nmNwX.       .nmMmCZMq7XXXXXXXXX,,tiFGSSDFaaFSDSDSDSDaFpy---",
"ttHKSDSFSaSaDSaSaSSSSp;@@@.@--------X67vVZBnmnXX@;;;;;;;7mnv7*&&&&&&bmN7X. --,-  .nmMBZVv76        X,;taDFSDSFSaSaDSaSaSSSSpy---",
"ttHHSSDFSaDSGaDaSDFaFp;@--..@@@@@@@@XX*qMZCNmnXX.@@@@@@@7mnv*&&&&&&&=MMXX.--;;--XXnmMCZMq&XXX-XXXXXX,,tiDDSSDFSaDSGaDaSDFaFpy---",
"ttHGSDSaDSaFaSaFDSDSDp--;-..... ..XXXX&*wVZCNnXX.XXXXXXXvVn99&&&&&&&&bBXX.X----XXXnNCZVw&&XX-,-XXXXX,tiiSDSDSaDSaFaSaFDSDSDpy---",
"ttSappipppppSpaSappppi;;-@.... ...XXXXX#&vVZCnX..XXXXXXqnB99*&&&&&&&&9BqX.XX.XXXXXmCZVv&#XXXX-+XXXXX-,tiaappipppppSpaSappppiy---",
"tt,pyyiiipiiyyyiiiiyyy-@@X  -,yytttyyyt*7wmVZnX..XXXXX7bCAB9 &&   &eBBBm-@X.;tyyt;MZVmw##--XXXX,,;-X--@,ypyyiiipiiyyyiiiiyyyt---",
"tt;;;;;;;;;;;;;;;;;;;;@XXX.-,tyrrr>>,,>,**wMVnX@@;;;;-BBCneve     eBbqZZM9X;yytt,;NVMw#*-@-XXXypyt;-OOO-;;;;;;;;;;;;;;;;;;;;;---",
"tt;;;;;;;;;;;;;;;;;;;;XXXX.-,rrrrr>,>>,>;**wMnX->yyytCb&Cjff99    9qweBnBmX;yr,>t;BVw**---@XX>yyt,t,-OOO;;;;;;;;;;;;;;;;;;;;;---",
"ttpHJJKLLLKJJJJJLJLJGp;-@X.-,>rt,,,,,>>>;-**wnX-;tttyCMfCdjzccccccczjdZ99BX;yrt,,;Vw*9-----XX>tt,,,,;-,yaHJJKLLLKJJJJJLJLJGp,---",
"ttHLJGGJJJHHGJGJGGGJFar>;@.-,>>,>>>>,,r>;-X**wX@;rr,rdCjcxclkkkkkkklcccjBwX;yr>r,;w79----;-XX;,>,,;;-;yiaLJGGJJJHHGJGJGGGJFay---",
"ttHKFDDFDSFDSGFFSDDSFp-;@-.@;,,>,,,>>,>,;-XX**X@-,,>dcxxlkkjjhhhhhhhhkzcckd;tr>r,;7e--@@;;-XX-;>>,;;;rr,aKFDDFDSFDSGFFSDDSFpy---",
"ttHJDDSDFDDFDDSSDGDSSp----.@-r>;;;,,>>,>--XXX*-@;r,zcxkkkhhhhgggggggggggjzc2t>,r,;e-@@-;>,-XX--;,>;-;,,taJDDSDFDDFDDSSDGDSSpy---",
"ttHJFDDFSFFSDSGSSSaDDp@@;;..@------------XXXX;>@;dcxkkhhfs32333333555ffghhkccd,,,;@@@-;>>,-XXX--;;--;r:tiJFDDFSFFSDSGSSSaDDpy---",
"ttHKSSSDFSSDSSFDDFSDSp@@@@.....X--XXXXXXXXXXX-;rdczkjhf2223335ss5533322sffhhkcd>r;@@;;,,>>-XX-XX----::tyaKSSSDFSSDSSFDDFSDSpy---",
"ttHKFSDSDFSFSFDSDSDDFp-;;;.....-,,-XXXXXXXXXXXrdxzkjf3<23<<         <<332shhhkcd,,-;,;>>>r-o-,;oXXXXrrrtaKFSDSDFSFSFDSDSDDFpy---",
"ttHKSDDFSFDSFSFDSaDSSp-@;@.....X--XXXXXXXXXXXXdzxzkd<22<              --22shfhkxd>;>>;,r,>-o-,-+oXXX:r:yaHSDDFSFDSFSFDSaDSSpy---",
"ttHHSSSDSSDDSDSaaDFaFp;-@@.  >y;   >yyyyt,-XXdxxs-------   ------------;;   34hkzd-rr,,r,>-o---+>y-X::ypiHSSSDSSDDSDSaaDFaFpy---",
"ttHKSDaaSSSSDaSDaaDSSp-@@-..->tt- ->ttyt,;-X4xxxs-HHHHHH   -HHHHHHHHHHHHHHHH 4hhkl4->,>,>,-oX-o;yy-X,:;yyGSDaaSSSSDaSDaaDSSpy---",
"ttHHSSaaFSDSDSDSDDFaFp;@@-..-;rr- -;rrr,;;-Xlxxxs-GDDDDG   -GDDDDDDDDDDDDDDG <sfhls@-rr>>,-oXXX,yt;X,::tyGSSaaFSDSDSDSDDFaFpy---",
"ttHGSDSaSaDSaSaSSSDSDp;-;-..-;>r- -;>rt,,;@slxxl4-GDDDDG   -GDDDDDDDDDDDDDDG-1sfghks@;>>;,-oXXX,yr;X,t,tpSSDSaSaDSaSaSSSDSDpy---",
"ttSappipppppSpaSappppi;;-@..-;>>- -;>>,,>;@klllf5-GDDDDG   -GDDDDDDDDDDDDDDG--sfgghf-@;>>>-oXXX>yr;X-,ttpappipppppSpaSappppiy---",
"tt,pyyiiipiiyyyiiiiyyy;@@X..@;,;- @;,,>;;;4kkkk55-GDDDDG   -GDDDDDDDDDDDDDDG--4ffggh4@;;>>@oXXX;tr-X--;typDDaiipiiyyyiiiiyyyt---",
"tt;;;;;;;;;;;;;;;;;;;;XXXX..@;;-- @-->;;;;sjjjf53-GDDDDG   -GDDDDSpppppppppS  1fffggs@@;;-@oXXX@-;-OOOOO;;;;;;;;;;;;;;;;;;;;;---",
"tt;;;;;;;;;;;;;;;;;;;;XXXX...@--  .@-----Xfgghd31-GDDDDG   -GDDDDG             4gffgf@@@@@-oXXXXXXOOOOOO;;;;;;;;;;;;;;;;;;;;;---",
"ttpHJJKLLLKJJJJJLJLJGp>;- ..... ..XXXXXXX4hggg53 -GDDDDG   -GDDDDG             1jffgh4@@@@oXX--XXXOO@,tySHJJKLLLKJJJJJLJLJGp,---",
"ttHLJGGJJJHHGJGJGGGJFar;;-..... ..XXXXXXXshggf51 -GDDDDG   -GDDDDG              jffggsXXXXXX-,,-XXXX,ytpHLJGGJJJHHGJGJGGGJFay---",
"ttHKFDDSDSFDaSSDSDDSFpr>@;...-----------Xfgggd3  -GDDDDG----GDDDDG-----------   gdfggfXXXXXXX--XXXXXrtypHKFDDSDSFDaSSDSDDSFpy---",
"ttHJDDDFSFSDSFDSDGDSSp>;;-.--;ttyiiyttr,-hggf51  -GDDDDGHHHHGDDDDGHHHHHHHHHH-   3gffghXXX->ttyytt;XX,rpSHJDDDFSFSDSFDSDGDSSpy---",
"ttHJFDDSGGDSaDaSSSaDDpr>;;.-;,r,ttttr,,;-ggff51  -GDDDDDDDDDDDDDDDDDDDDDDDDG-   1jffghXX-tytrrtyir-XrrypHJFDDSGGDSaDaSSSaDDpy---",
"ttHKSDSFDFSFDDSDDaDSSpyr>;.-;,,t,,tt,t,;@gfff5   -GDDDDDDDDDDDDDDDDDDDDDDDDG-    jfffgXX;ytr,rrtyr-XrtiSHFSDSFDFSFDDSDDaDSSpy---",
"ttHHSSDFSaDSGaDaSDFaFpr>-;.->>>,>>>>>,r;@fdff5   -GDDDDDDDDDDDDDDDDDDDDDDDDG-    jfffgXX;trr>rttt>-XrtypHFSSDFSaDSGaDaSDFaFpy---",
"ttHGSDSaDSaFaSaFDSDSDpr;;@.->,>>>,>,>>>;@ddff5   -GDDDDDDDDDDDDDDDDDDDDDDDDG-    jfffgXX,t,>>>r,t>@X:rtiFDSDSaDSaFaSaFDSDSDpy---",
"ttSappipppppSpaSappppi>@@@.->rr>>r>rr>>;@ddfg5   -SpppppppppSDDDDSppppSDDDDG-    jffffXX>t,>>>>>r,@X-:tySappipppppSpaSappppiy---",
"tt,pyyiiipiiyyyiiiiyyy@@@@.->r>;>r>r>;r;@ddgg51  -----------GDDDDG   -GDDDDG-    jffffXX>tr,>>>>>r>-X-:tipyyiiipiiyyyiiiiyyyt---",
"tt,;;;;;;;;;;;;;;;;;;;XXXX.@>>>,>>>>>,>;@sdghf3            -GDDDDG   -GDDDDG-   1hffdsXX,t,,r>>;>;>-XOO-,;;;;;;;;;;;;;;;;;;;;---",
"tt,;;;;;;;;;;;;;;;;;;;XXXX.-;;,>;;;;,>>;@2fghh5            -GDDDDG   -GDDDDG-   3hfdd4XX;trr>r>>>>;--OO-,;;;;;;;;;;;;;;;;;;;;---",
"ttpHJJKLLLKJJJJJLJLJGp>;-..->r;;>r>r;;;;@Xfghhf1 -----------GDDDDG   -GDDDDG-   fhfdd-XX-rr,>>,;>r>-;,typHJJKLLLKJJJJJLJLJGp,---",
"ttHLJGGJJJHHGJGJGGGJFa;>;@.@>>>r>>>>>r>;@Xshhhf4 -HHHHHHHHHHGDDDDG   -GDDDDG---3jhdds-XX-,t,rrr>>;,-:tyrHLJGGJJJHHGJGJGGGJFay---",
"ttHKFDDSDSFDaSSDSDDSFp,r;@.->;>>>;>;>>,;-X2fhjh5;-GDDDDDDDDDDDDDDG   -GDDDDG--1sjfdd4-XX->t,r,r>,;,X:tipHKFDDSDSFDaSSDSDDSFpy---",
"ttHJDDDFSFSDSFDSDGDSSp,>;@.-;r,>,r,r,>;-@XXfhhjf<-GDDDDDDDDDDDDDDG   -GDDDDG- 4jgdds--XX--,r,>>rr,;X:rpDHJDDDFSFSDSFDSDGDSSpy---",
"ttHJFDDSGGDSaDaSSSaDDp>;;-.--;;;,>,>;-@@-XX2fhjj<OGDDDDDDDDDDDDDDG   -GDDDDG-<4gfdd4--XXX->rr>,>r>-X,rtpHJFDDSGGDSaDaSSSaDDpy---",
"ttHKSSDaDDSDDFSFDFSDSpr@-@..------------XXXXsfhj<OGDDDDDDDDDDDDDDG   -GDDDDG-44sfdf---XXX-;rr,>;;@-X:y:iHKSSDaDDSDDFSFDFSDSpy---",
"ttHKFSDDSDSSaDFSDSDDFpt;-@...---------XXXXXX2sfg4OSppppppppppppppS   -SppppS-54sdd4@,-XXXX-;,;-@@@XX:ytaHKFSDDSDSSaDFSDSDDFpy---",
"ttHKSDSFDFSFDDSDDaDSSpt;;-..... ..XXXXXXXXXXX2ffd22-------           -------134sd2--r-XX-XXX-@@ XXXX,ttaHKSDSFDFSFDDSDDaDSSpy---",
"ttHHSSDFSaDSGaDaSDFaFp,;@@..... ..XXXXXXXXXXXX2ddd44222--              11111134s2-->r-X-y-XXXXXXXXXX:;tuHHSSDFSaDSGaDaSDFaFpy---",
"ttHGSDSaDSaFaSaFDSDSDp-;@@.. ------------------2dffddd2223          5ddds3222342-->rr-Xt,;XX------XX::t,HGSDSaDSaFaSaFDSDSDpy---",
"ttSappipppppSpaSappppi;@@@..-,yyyyyyyyyyyyyyyy>>2dfghhjlccczzzzzzzzzzzkfs444442-->rr>-X,,;X;,yyyy,-X@;;tSappipppppSpaSappppiy---",
"tt,pyyiiipiiyyyiiiiyyy@@@..-,tttttttttttttttrrr;;2sfghhhhkkkkkkkkkkkkkhgs55552-->,r>,-X;,;-,yttttt;-X@@@,pyyiiipiiyyyiiiiyyyt---",
"tt--------------------.....-rrrtrrr,rtrrr,rrrrrr--2sdfgghhhhhhhhhhhhhhhgs5552-;,,,r>r-X----tyrrrrt,--XX-------------------------",
"tt--------------------.....-rrrrr,rrrrr,rrrt,r>rr;@-$4dfffgggggggggggggfs42..t,>>;>>>-XX-X-rtr,rrrr--XX-------------------------",
"t,pHJJKLLLKJJJJJLJLJGp>>-@.-r,,r>>r>,r>>r>>>r,>,>,>-@--244dfffffffffd442@--XXrr>,,,>>-XXXX-rtt,tr,r-X,yypHJJKLLLKJJJJJLJLJGp,---",
"t,HLJGGJJJHHGJGJGGGJFa;;>;.-,tr>>,r>r>>,r>>r,>>r,>,,>-@@-<<333333333<---X,,-X,r;;>>>;-XXXX-,ttt,r>;-XytrHLJGGJJJHHGJGJGGGJFay---",
"t,HKFDDSDSFDaSSDSDDSFp-@@>.->>>,>>,,>,>>,,>>>,,,>>>;>>--;;,,,,,,,,,,,@XX,y,-----------XX-X--,r,r,>-X,::,HKFDDSDSFDaSSDSDDSFpy---",
"t,HJDDDFSFSDSFDSDGDSSp-;;>.->r,>,>>;,>,>>;,>,>>,>>;>>,;;>ppppppppppppi,X-,--XXXXXXXXXXX-t-X-;,r,,;-Xyrr,HJDDDFSFSDSFDSDGDSSpy---",
"t,HJFDDSGGDSaDaSSSaDDp@-;;..;;;>rr,>;>rr,>;>>>>>;;>>>>;;iDDDFDDDDSDSDDi,X--XXXXXXXXXXXXX-XXX--;;;--Xrr,;HJFDDSGGDSaDaSSSaDDpy---",
"t,HKSDSFDFSFDDSDDaDSSp--;@..X---;;>;--;;>;;;;;;;;;;;;;iiSSDSDSSDDSSSDSSiiXXXXXXXXXXXXXXXXXXXXXXXXXXX:r,,HKSDSFDFSFDDSDDaDSSpy---",
"t,HHSSDFSaDSGaDaSDFaFp-;>riaGKKKKKKKKKKKKKKKKKKKKKKKKKKGGSSDSDSDSSSSDFGJJJJJJJJHHHKKKKKKJJJJJKKKKJFSpyt,HHSSDFSaDSGaDaSDFaFpy---",
"t,HGSDSaDSaFaSaFDSDSDp,tyaFGKHHHHFFGGFGFHGHHKHHHHFHFHHFGGFGFHGHHGFFFFDDDDDDDDFDDDDFFFFFFFFFFFGHGHGGFayt,HGSDSaDSaFaSaFDSDSDpy---",
"t,SappipppppSpaSappppi,tyaSSGFFJFFFFFFFDDDGGGFFJFFDFFFFFFFFDDDGGDDSSSDSSSSSDSDSSDDFSSDDDFGFHDDFDSDSSayt,SappipppppSpaSappppiy---",
"t,,pyyiiipiiyyyiiiiyyy,tyaaSFFFFFFSDDSFDDDaSFFFFFFJSFSSDDSFDDDaSSSSSSDDSSDSSDSDSDSSaDSSaDDDDFDFSDaSaayt,,pyyiiipiiyyyiiiiyyyt---"
};
