/* XPM */
static char *_2d09d06574b44eafa21254ce6df083eDreOXqWMKoR4EJyc[] = {
/* columns rows colors chars-per-pixel */
"128 128 41 1 ",
"  c black",
". c #2B230F",
"X c #373700",
"o c #3B2F17",
"O c #232323",
"+ c #2F2F2F",
"@ c gray23",
"# c #43331B",
"$ c #4B3B1B",
"% c #573F1F",
"& c #434300",
"* c #4F4F00",
"= c #5F5F00",
"- c #6B6B00",
"; c #777700",
": c #5F4323",
"> c #6F4B27",
", c #774F2B",
"< c #00004F",
"1 c #00005B",
"2 c #4B4B4B",
"3 c gray34",
"4 c #676767",
"5 c gray45",
"6 c gray50",
"7 c #83532F",
"8 c #8B5B33",
"9 c #935F37",
"0 c #878700",
"q c #939300",
"w c #9F9F00",
"e c #AFAF00",
"r c #BBBB00",
"t c #C7C700",
"y c #D7D700",
"u c #E3E300",
"i c #EFEF00",
"p c yellow",
"a c gray56",
"s c #9B9B9B",
"d c gray67",
/* pixels */
",,,,,,,,,,,,,,,,,,,,,,,,,,,,,,,,,,,,,,,,,,,,,,,,,,,,,,,,,,,,,,,,,,,,,,,,,,,,,,,,,,,,,,,,,,,,,,,,,,,,,,,,,,,,,,,,,,,,,,,,,,,,,,,,",
"::::::::::::::::::::::::::::::::::::::::::::::::::::::::::::::::::::::::::::::::::::::::::::::::::::::::::::::::::::::::::::::::",
"88888888888888888888888888888888888888888888888888888888888888888888888888888888888888888888888888888888888888888888888888888888",
"99999999999999999999999999999999999999999999999999999999999999999999999999999999999999999999999999999999999999999999999999999999",
"77777777777777777777777777777777777777777777777777777777777777777777777777777777777777777777777777777777777777777777777777777777",
">>>>>>>>>>>>>>>>:%$%%$%:>>>>>>>>>>>>>>>>>>>>>>>>>>>>:%$%%$%:>>>>>>>>:%$%%$%:>>>>>>>>>>>>:%$%%$%:>>>>>>>>>>>>>>>>>>>>>>:%$%%$%:>>",
"%%%%%%%%%%%%%%#o$%o.o#%%%$########$%%%##%%##%%####%%$%o.o#%%%%##%%oo$%o.o#%%%$######$%oo$%o.o#%%#$%%$##$%%$#$%##%%%%%$$%o.o#%%%%",
"%%%%%:::::::::#o:,o.o%,%%$########$%%%##%%##%%####%%:,o.o%,%%%##%%oo:,o.o%,%%$######$%oo:,o.o%,%#$%%$##$%%$#$%##%%%%%$:,o.o%,%%%",
"$$$$%>,,,,,,,>$%,9%o%>9>:%$$$$$$$$:,,,$$:>$$:>ettrq===%o%>9>,,$$>,%%,9%o===qrtte$$$$::%%,9%o%>9>$:,,:$$%,,%$:,%$:,,,,>,9%o%>9>:>",
"$$$$%>,,,,,,,>$%,9%o%>9>:%$$$$$$$$:,,,$$:>$$:>00qetuytq;*>9>,>$$>,%%,*;qtyuteq00$$$%::%%,9%o%>9>$:,,:$$%,,%$:,%$:,,,,>,9%o%>9>%>",
"$$$$%>,,,,,,>:$%,9%o%>9>>%$$$$$$$%:,,>$$:>$$:>$$$$-0qwtuute-,>$$>,-etuutwq0->:%$$$$%:,%%,9%o%>9>$:,,:$$%,,%$:,%$:,,,,>,9%o%>9>$:",
"$$$$%:,,,,,,>:$%,9%o%>9>>:$$$$$$$%:,,>$$:>0eew0ee0***=;0etuut0$$0tuute0;=***0ee0wee0>,%%,9%o%>9>$:,,:$$%,,%$:,%$%,,,,>,9%o%>9>$:",
"$$$$%:>,,,,,>%$%,9%o%>9>,:%$$$$$$%>,,:$$-0ertuppuu%%,9%o-0qeruuuureq0-%o%>9>uupputre0-%%,9%o%>9>$:,,:$$%,,%$:,%$%,,,,>,9%o%>9>$:",
"$$$$%:>,,,,,:%$%,9%o%>9>,:%$$$$$%%>,,:$$-ertuuppuu0;qwwetyyyteeeq0------%>90uuppuutre-%%,9%o%>9>$:,,:$$%,,%$:,%$%,,,,>,9%o%>9>$:",
"%$$$%%>>,,,,:%$%,9%o%>9>,>%$$$$$%:;ettye:0ruiippppuuyyyyyteeq;;--;00eettttuuppppiiur0,eytte;%>9>$:,,:$$%,,%$:,%$%,,,,>,9%o%>9>$:",
"%$$$%%:>,,,>%%$%,9%o%>9>,>%$$$$$:=wtuuye==ruiippppiiiuutee;=XO OX&*-qttuuiiippppiiur==eyuutw=>9>$:,,:$$%,,%$:,%$%,,,,>,9%o%>9>$:",
">:$$$%::>,>:%$$%,9%o%>9>,>:%$$$%;tttuuppeeppppyyytewq;;;=*         X&=;;;qwetyyyppppeeppuuttt;9>$:,,:$$%,,%$:,%$%>,,,>,9%o%>9>$:",
">:$$$$%::>::%$$%,9%o%>9>,,:%$$$%;etuuupppppytrw00;;;;q*X            X&**q;;;;00wrtypppppuuute;9>$:,,:$$%,,%$:,%$%>,,,>,9%o%>9>$:",
">:$$$$$::::%$$$%,9%o%>9>,,>:-wrq>;tuppppyr00;;qqwweeee    OOOOOOOO      eeeewwqq;;00rypppput;>qrw-,,:$$%,,%$:,%$%>,,,>,9%o%>9>$:",
">:$$$$$%%:%%$$%%,9%o%>9>,,>:;ttt>,ttppyr0;qqwweeeerrrr  OOOOOOOOOOOO    rrrreeeewwqq;0rypptt%>ttt;,,:$$%,,%$:,%$%>,,,>,9%o%>9>$%",
",:%$$$$$%%%$$$%%,9%o%>9>,,-;wtppeeppyr0;0qee;=teeettyt  OOOO+++++++OOOOOtytteeet=;eeq0;0ryppeepptw;-:$$%,,%$:,%$%:,,,>,9%o%>9>$%",
",>:$$$$$%%$$$$:%,9%o%>9>,,wttuppppyr0;qwwwrr* yttttty0  OO++++++++++++++0ytttttyO*rrwwwq;0rypppputtw:$$%,,%$:,%$%:,,,>,9%o%>9>$%",
",,:$$$$$$$$$$$:%,9%o%>9>,,etuuppyr0;qeeetyyp  eytttuX   O++++++++++++++++XutttyeOOpyyteeeq;0ryppuute:$$%,,%$:,%$%:,,,>,9%o%>9>$$",
",,:%$$$$$$$$$%>%,9%o%>9>,,tuuuprw;qweettyyww  =eyyu0   OO+++++++++++++++++0uyye=OOwwyytteewq;wrpuuut:$$%,,%$:,%$%:,,,>,9%o%>9>$$",
">>>:$$$$$$$$%:>%,9%o%>9>,,tuppr0;qww=0yyyw=          OOO++++++++++++++++++OOOOOOOO+=wyyy0=wwq;0rpput-$$%,,%$:,%$$%,,,>,9%o%>9>$$",
">>,:$$$$$$$$%>>%,9%o%>9>,-eupr0qwwwwX*eeuw          OOOO++++++++++++++++++++OOOOOOO+wuee*Xwwwwq0rpue-$$%,,%$:,%$$%>,,>,9%o%>9>$$",
">>,>:%$$$$$$:>>%-etteeww00wtr0reru=        OOOO    OOOO+++++++++++++++++++++++++OOO++OOOOOO=urer0rtw00wweette-%$$%>,,>,9%o%>9>$$",
">>,,:%$$$$$%:,:%epppppyw00tt0wrupe=       OOOOOOOOOOOO++++++++++++++++++++++++++++++++OOOOO=epurw0tt00wypppppe%$$%>,,>,9%o%>9>$$",
":>,,>:$$$$%%>>;etppppppywww; X&=--  OOOOOO+++OOOOOOO++++++++++++++++++++++++++++++++++++++OO--=&XO;wwwyppppppte;$%:,,>,9%o%>9>$$",
":>,,,>:$$$%:,>eppppppppuw;;-       OOOOOOO++++++++++++++++++++++++++++++++++++++++++++++++++++OOOO-;;wuppppppppe$%:,,>,9%o%>9>$$",
"%>,,,,::$$%>>:tpppppppyr;0w-      OO++dddddddddddddddddddddddddddddddddddddddddddddddddd++++++++++-w0;rypppppppt$%:,,>,9%o%>9>%$",
"%:,,,,>:%$:,>:;tpppppur;0wwe=   OO++++dddddddddddddddddddddddddddddddddddddddddddddddddd+++++++++=eww0;rupppppt;$%:,,>,9%o%>9>%$",
"$:>,,,,>::>,>%$%;tpppr;0wrtuu0  OO++++sds41111111111111111111111111111111111111111114sds++++++++0uutrw0;rpppt;::$$:,,>,9%o%>9>%$",
"$:>,,,,,>:>,>%$%;rppte0wrtuppu  OO++++6dd51111111111111111111111111111111111111111115dd6++++++++upputrw0etppr;::$$%,,>,9%o%>9>%$",
"$%>>,,,,>>,,:%;eyppur0wrtupppu  OO++++2sda2116aaaaaaaaaaaaaaaaaaaaaaaaaaaaaaaaaa6112ads2++++++++uppputrw0ruppye;$$%>,>,9%o%>9>%$",
"$%>>,,,,,>,,:%epppptw00wupppr-  OO++++@6dd5114aaaaaaaaaaaaaaaaaaaaaaaaaaaaaaaaaa4115dd6@++++++++-rpppuw00wtppppe$$%>,>,9%o%>9>%$",
"$$:>>,,,,,,>;etpppye0w&&tppr   OOO+++++@sda21@6a4<<<<<<<<<<<<<<<<<<<<<<<<<<<<4a6@12ads@++++++++++Orppt&&w0eypppte;$:,>,9%o%>9>:%",
"$$:>>,,,,,,>epppppt0ww& 0tt-   OOO+++++@6dd5114a6@<<<<<<<<<<<<<<<<<<<<<<<<<<@6a4115dd6@++++++++++O-tt0$&ww0tpppppe$:,>,9%o%>9>:%",
"$$%:>,,,,,>:tppppue0wte0      OOO+++++++2sda21@aa4<<<<<<<<<<<<<<<<<<<<<<<<<<4aa@12ads2++++++++++++OOO+0etw0euppppt$%>>,9%o%>9>:%",
"$$%:>>,,,,>:;tpppt0wttpp&    OOO++++++++@5dd4114a6@<<<<<<<<<<<<<<<<<<<<<<<<@6a4114dd5@+++++++++++++OO&ppttw0tpppt;$%:>,9%o%>9>:%",
"$$$%:>,,,,>:$$pppe0erupp& OOOOO++++++++++@sda21@aa3<<<<<<<<<<<<<<<<<<<<<<<<3aa@12ads@++++++++++++++++&ppure0eppp%$$$:>,9%o%>9>::",
"$$$%:>>,,>:%$$ppy000uur0  5553+++++++++++@5dd5114a6@<<<<<<<<<<<<<<<<<<<<<<@6a4115dd5@+++++++++++3555++0ruu000ypp%$$$%:,9%o%>9>%:",
"$$$%%:>>>>=;eeppy0&&uu  OOddds62@+++++++++26da21@aa4<<<<<<<<<<<<<<<<<<<<<<4aa@12ad62+++++++++@26sddd++++uu&&0yppee;=%:,9%o%>9>%:",
"$$$$%::>>:;ruuppr0& 0-  OOddsdds4@++++++++@3dd5114a6@<<<<<<<<<<<<<<<<<<<<@6a4115dd3@++++++++@4sddsdd+++O-0%&0rppuur;$%,9%o%>9>%:",
"%$$$%%:::%euppppw0e0    OOdd36sdds42+++++++@6da21@aa2<<<<<<<<<<<<<<<<<<<<2aa@12ad6@+++++++24sdds63dd++++O+0e0wppppue$%,9%o%>9>%:",
"%$$$%%%:%%eupppyqwee    OOdd11@4sdds4@+++++@4sd5114a6@<<<<<<<<<<<<<<<<<<@6a4115ds4@+++++@4sdds4@11dd+++++Oeewqypppue$%,9%o%>9>%:",
"%$$$$%%%%$0upppy0weq   OOOdd1111@6ddd62@++++26da21@aa4<<<<<<<<<<<<<<<<<<4aa@12ad6@++++@26ddd6@1111dd+++++Oqew0ypppu0$%,9%o%>9>%:",
"%%$$$$%%$$;tpppr0wq*   OOOdd11111126dds4@++++3sd5114a6@<<<<<<<<<<<<<<<<@6a4115ds3++++@4sdd62111111dd+++++O*qw0rpppt;$$,9%o%>9>%:",
":%$$$$$$$$$;tturww    OOO+dd114311114sdd64@++@6da21@aa3<<<<<<<<<<<<<<<<3aa@12ad6@++@46dds411113411dd+++++OO+wwrutt;$$$,9%o%>9>%:",
":%$$$$$$$$$$qturq*    OO++dd11aa6311126sdd64@+3sd5114a6@<<<<<<<<<<<<<<@6a4115ds3+@46dds6211136aa11dd+++++OOO*qrutq$$$$,9%o%>9>%:",
">%$$$$$$=www00=X    OOO+++dd11aaaa5211126ddd63+5da21@aa3<<<<<<<<<<<<<<3aa@12ad5+36ddd6211125aaaa11dd++++++OOOOX=00www=,9%o%>9>%%",
">:$$$$$$wyuye0=X    OO++++dd11aaaaa63111126ddd6+sd5115a6<<<<<<<<<<<<<<6a5115ds+6ddd62111136aaaaa11dd++++++++++X=0eyuyw,9%o%>9>$%",
">:$$$$;euipppuwww;   OO+++dd11aa@36aa63111126ddsada21@aa<<<<<<<<<<<<<<aa@12adasdd62111136aa63@aa11dd++++++++;wwwupppiue;%o%>9>$%",
">>$$$$euippppywwww   OO+++dd11aa<<@36aa6311114sdddd511aa<<<<<<<<<<<<<<aa115dddds4111136aa63@<<aa11dd++++++++wwwwyppppiue%o%>9>$%",
">>%$$$tupppputwetuu;  OO++dd11aa<<<<@36aaa311125sdd611aa<<<<<<<<<<<<<<aa116dds521113aaa63@<<<<aa11dd++++++;uutewtupppput%o%>9>$$",
">>:$$$;tpppputeryupu  OO++dd11aa<<<<<<@36aa6311125ss11aa<<<<<<<<<<<<<<aa11ss5211136aa63@<<<<<<aa11dd++++++upuyretuppppt;%o%>9>$$",
":>:$$$$$upppyeetyupy  OO++dd11aa<<<<<<<<@36a6631111111aa<<<<<<<<<<<<<<aa1111111366a63@<<<<<<<<aa11dd++++++ypuyteeypppu,9%o%>9>$$",
":>:%$$$$upppyeetuup;  OO++dd11aa<<<<<<<<<<@36aaa311111aa<<<<<<<<<<<<<<aa111113aaa63@<<<<<<<<<<aa11dd++++++;puuteeypppu,9%o%>9>$$",
"%>>%$$-wwupptwttppw   OO++dd11aa<<<<<<<<<<<<@36aaaaaaaaa<<<<<<<<<<<<<<aaaaaaaaa63@<<<<<<<<<<<<aa11dd+++++++wppttwtppuww-%o%>9>$$",
"%:>:$$wuiipptwttu;    OO++dd11aa<<<<<<<<<<<<<<@46aaaaaaa<<<<<<<<<<<<<<aaaaaaa64@<<<<<<<<<<<<<<aa11dd+++++++O;uttwtppiiuw%o%>9>%$",
"%:>:%$tipppprww-     OO+++dd11aa<<<<<<<<<<<<<<<<<<<<<<<<<<<<<<<<<<<<<<<<<<<<<<<<<<<<<<<<<<<<<<aa11dd++++++++OO-wwrppppit%o%>9>%$",
"%:>>%$tipppprwre*    OO+++dd11aa<<<<<<<<<<<<<<<<<<<<<<<<<<<<<<<<<<<<<<<<<<<<<<<<<<<<<<<<<<<<<<aa11dd++++++++OOerwrppppit%o%>9>%$",
"$::>:%eupppprwuupw   OO+++dd11aa<<<<<<<<<<<<<<<<<<<<<<<<<<<<<<<<<<<<<<<<<<<<<<<<<<<<<<<<<<<<<<aa11dd++++++++wpuuwrppppue%o%>9>%$",
"$%:>:%;eppppteuupu  OOO+++dd11aa<<<<<<<<<<<<<<<<<<<<<<<<<<<<<<<<<<<<<<<<<<<<<<<<<<<<<<<<<<<<<<aa11dd++++++++upuuetppppe;%o%>9>%$",
"$%%>>:%%wuppteuupy  OO++++dd11aa<<<<<<<<<<<<<<<<<<<<<<<<<<<<<<<<<<<<<<<<<<<<<<<<<<<<<<<<<<<<<<aa11dd++++++++ypuuetppuw,9%o%>9>%$",
"$%%:>>:%wwpptruuy;  OO++++dd11aa<<<<<<<<<<<<<<<<<<<<<<<<<<<<<<<<<<<<<<<<<<<<<<<<<<<<<<<<<<<<<<aa11dd++++++++;yuurtppww,9%o%>9>%$",
"$$%:>>;wyypptr*     OO++++dd11aa<<<<<<<<<<<<<<<<<<<<<<<<<<<<<<<<<<<<<<<<<<<<<<<<<<<<<<<<<<<<<<aa11dd+++++++++++*rtppyyw;%o%>9>%$",
"$$%%>>wyiipptr-     OO++++dd11aa<<<<<<<<<<<<<<<<<<<<<<<<<<<<<<<<<<<<<<<<<<<<<<<<<<<<<<<<<<<<<<aa11dd+++++++++++-rtppiiyw%o%>9>%$",
"$$$%:>eyppppttpw   OO+++++dd11aa<<<<<<<<<<<<<<<<<<<<<<<<<<<<<<<<<<<<<<<<<<<<<<<<<<<<<<<<<<<<<<aa11dd++++++++++wpttppppye#o%>9>%%",
"$$$%::=epppptupp   O++++++dd11aa<<<<<<<<<<<<<<<<<<<<<<<<<<<<<<<<<<<<<<<<<<<<<<<<<<<<<<<<<<<<<<aa11dd++++++++++pputppppe=#o%>9>%%",
"$$$$%::;pppptuuuoooooooooodd11aa<<<<<<<<<<<<<<<<<<<<<<<<<<<<<<<<<<<<<<<<<<<<<<<<<<<<<<<<<<<<<<aa11dd$oo###$ooouuutpppp;>#o%>9>%%",
"$$$$%%::0tpptuuwo#oooo#ooodd11aa<<<<<<<<<<<<<<<<<<<<<<<<<<<<<<<<<<<<<<<<<<<<<<<<<<<<<<<<<<<<<<aa11dd$oo###$#oowuutppt0%>#o%>9>%%",
"$$$$$%%%%$tpee=##%ooo#%###dd11aa<<<<<<<<<<<<<<<<<<<<<<<<<<<<<<<<<<<<<<<<<<<<<<<<<<<<<<<<<<<<<<aa11dd$oo###$#ooo=eept%%%>#o%>9>%:",
"$$$$$$%%$$;te;###%ooo#%###dd11aa<<<<<<<<<<<<<<<<<<<<<<<<<<<<<<<<<<<<<<<<<<<<<<<<<<<<<<<<<<<<<<aa11dd$oo###$#ooo$;et;%%%>#o%>9>%:",
"$$$$$$$$$$oooo###%ooo#%###dd11aa<<<<<<<<<<<<<<@46aaaaaaa<<<<<<<<<<<<<<aaaaaaa64@<<<<<<<<<<<<<<aa11ddoooo##$#ooo#%%%%%%%>#o%>9>%:",
"%$$$$$$$$$$ooo###%oo##%###dd11aa<<<<<<<<<<<<@36aaaaaaaaa<<<<<<<<<<<<<<aaaaaaaaa63@<<<<<<<<<<<<aa11ddoooo##$#ooo#%%%%%%%>#o%>9>%:",
"%$$$$$$$$$$$o###%>#o#%>%%%dd11aa<<<<<<<<<<@36aaa311111aa<<<<<<<<<<<<<<aa111113aaa63@<<<<<<<<<<aa11ddoooo##$#ooo#%%%%%%%>#o%>9>$:",
"%$$$$$$$$$$$$%##%>#o%>9>,,dd11aa<<<<<<<<@36a6631111111aa<<<<<<<<<<<<<<aa1111111366a63@<<<<<<<<aa11ddoooo##$$ooo#$%%%%%%>#o%>9>$:",
"%%$$$$$$$$$$$%%%,9%o%>9>>>dd11aa<<<<<<@36aa6311125ss11aa<<<<<<<<<<<<<<aa11ss5211136aa63@<<<<<<aa11ddooooo#%$oooo$%%%%%%>#o%>9>$:",
":%$$$$$$$$$$%%%%,9%o%>9>:>dd11aa<<<<@36aaa311125sdd611aa<<<<<<<<<<<<<<aa116dds521113aaa63@<<<<aa11ddooooo#%$###o$%%%%:%>#o%>9>$:",
":%$$$$$$$$$$::%%,9%o%>9>%>dd11aa<<@36aa6311114sdddd511aa<<<<<<<<<<<<<<aa115dddds4111136aa63@<<aa11ddooooo#%$$$$o#%%%:::>#o%>9>$%",
":%%$$$$$$$$$::%%,9%o%>9>%>dd11aa@36aa63111126ddsada21@aa<<<<<<<<<<<<<<aa@12adasdd62111136aa63@aa11dd$oooo##$$$$$%$%::>>>%o%>9>$%",
">:%$$$$$$$$%:>%%,9%o%>9>$:dd11aaaaa63111126ddd6osd5115a6<<<<<<<<<<<<<<6a5115dso6ddd62111136aaaaa11dd$oooo##$$$$$%:>,,>,9%o%>9>$%",
">:%$$$$$$$%%:>%%,9%o%>9>$:dd11aaaa5211126ddd63o5da21@aa3<<<<<<<<<<<<<<3aa@12ad5o36ddd6211125aaaa11dd$oooo##$$$$$$:>,,>,9%o%>9>$%",
">:%%$$$$$$%:>:%%,9%o%>9>$%dd11aa6311126sdd64@o3sd5114a6@<<<<<<<<<<<<<<@6a4115ds3o@46dds6211136aa11ddoooooo#$%$$$$%>>,>,9%o%>9>$$",
">>%%$$$$$$%:>:%%,9%o%>9>$%dd114311114sdd642#o@6da21@aa3<<<<<<<<<<<<<<<<3aa@12ad6@oo246dds411113411ddoooooo#$%$$$$%>>,>,9%o%>9>$$",
">>:%%$$$$%%:>:%%,9%o%>9>$$dd11111126dds4@o##o3sd5114a6@<<<<<<<<<<<<<<<<@6a4115ds3#ooo@4sdd62111111ddoooooo#$%$$$$%:>>>,9%o%>9>$$",
":>:%%$$$$%%>>:%%,9%o%>9>$$dd1111@6ddd62@oo##26da21@aa4<<<<<<<<<<<<<<<<<<4aa@12ad6@oooo@26ddd6@1111ddoooooo#%%$$$$%:>>>,9%o%>9>$$",
":>>:%%$$%%:>>:%%,9%o%>9>$$dd11@4sdds4@oooo#@4sd5114a6@<<<<<<<<<<<<<<<<<<@6a4115ds3@ooooo@4sdds4@11ddooooo##%%$$$$$%:>>,9%o%>9>$$",
"%>>:%%$$%%:>::%%,9%o%>9>$$dd36sdds42oooooo#@6da21@aa2<<<<<<<<<<<<<<<<<<<<2aa@12ad6@#oooo##24sdds63ddooooo##%%$$$$$%::>,9%o%>9>$$",
"%:>>:%%%%::>:%%%,9%o%>9>$$ddsdds4@ooooooo#@3dd5114a6@<<<<<<<<<<<<<<<<<<<<@6a4115dd3@oooo##oo@4sddsddooooo##%:%$$$$$%::,9%o%>9>$$",
"%:>>::%%::>>:%%%,9%o%>9>$$ddds62@oooooooo#26da21@aa4<<<<<<<<<<<<<<<<<<<<<<4aa@12ad62oooo##oo#@26sdddooooo##%:%$$$$$$%:,9%o%>9>$$",
"$%>,::%%::,>:%%%,9%o%>9>$$5553#oooooooo#o@5dd5114a6@<<<<<<<<<<<<<<<<<<<<<<@6a4115dd5@ooo##oo####3555ooooo##%:%$$$$$$$%,9%o%>9>$$",
"$%>,>::::>,>%%%%,9%o%>9>$$$oooooooooooo#$@sda21@aa3<<<<<<<<<<<<<<<<<<<<<<<<3aa@12ads@ooo##oo####oo##ooooo##%::$$$$$$$$,9%o%>9>$$",
"$%>,>::::>,>%$%%,9%o%>9>$$$$#oooooooooo#@5dd4114a6@<<<<<<<<<<<<<<<<<<<<<<<<@6a4114dd5@oo##oo#%##oo##ooooo##%>:%$$$$$$$,9%o%>9>$$",
"$%:,,>::>>,>%$%%,9%o%>9>$$$$#oooooooooo%2sda21@aa4<<<<<<<<<<<<<<<<<<<<<<<<<<4aa@12ads2oo##oo#%%#oo##ooooo##%>:%$$$$$$$,9%o%>9>$$",
"$$:,,,>>>,,>%$%%,9%o%>9>%$$$$#oooooooo#@6dd5114a6@<<<<<<<<<<<<<<<<<<<<<<<<<<@6a4115dd6@####o%>>%oo##ooooo##%>:%$$$$$$$,9%o%>9>$$",
"$$:>,,>>,,,>%$%%,9%o%>9>%$$$$$oooooooo%@sda21@6a4<<<<<<<<<<<<<<<<<<<<<<<<<<<<4a6@12ads@####o%>>%oo##ooooo#o%>:%%$$$$$$,9%o%>9>$$",
"$$::>,,,,,,>%$%%,9%o%>9>%$$$$$#ooooooo@6dd5114aaaaaaaaaaaaaaaaaaaaaaaaaaaaaaaaaa4115dd6@###o%>>%o####oooo#$>,,:%$$$$$$,9%o%>9>%$",
"$$::>,,,,,>:%$%%,9%o%>9>%%$$$$$oooooo#2sda2116aaaaaaaaaaaaaaaaaaaaaaaaaaaaaaaaaa6112ads2#ooo#%>%$:::%###o%:>,,:%$$$$$$,9%o%>9>%$",
"$$%%>>,,,,>:%$%%,9%o%>9>::$$$$$#ooooo$6dd51111111111111111111111111111111111111111115dd6##oo#%>%$%,,:$$$$%:>,,:%%$$$$$,9%o%>9>%$",
"$$$%:>,,,,>:%$%%,9%o%>9>::$$$$$$$$$$$%sds41111111111111111111111111111111111111111114sds##oo#%>%$%,,:$$$$%:>,,:%%$$$$$,9%o%>9>%$",
"$$$%:>,,,,::%$%%,9%o%>9>>:%$$$$$$$$$$%dddddddddddddddddddddddddddddddddddddddddddddddddd##oo#%>%$%,,:$$$$$::,,>:%$$$$$,9%o%>9>%%",
"$$$%:>>,,,::%$%%,9%o%>9>>:%$$$$$$$$$$%dddddddddddddddddddddddddddddddddddddddddddddddddd##oo#%>%$%,,:$$$$$::,,>:%$$$$$,9%o%>9>:%",
"$$$$::>,>>::$$%%,9%o%>9>,:%$$$$$$$$$%:>%##ooooooooooo#oooo#oooooooooo#oooo#oooooooooooooooooo%>%$%,,:$$$$$%:,,>::%$$$$,9%o%>9>:%",
"$$$$::>,>:::$$%%,9%o%>9>,>%%$$$$$$$$%:>,%oooooooooooo#oooo#oooooooooo#oooo#oooooooooooooooooo%>%$%,,:$$$$$%:,,>>:%$$$$,9%o%>9>:%",
"$$$$%%:>>:%%$$%%,9%o%>9>,>::$$$$$$$$::>,>##oooooooooo#oooo#oooooooooo#oooo#ooooooooooooooooo#%>%$%>,:%$$$$%:>>,,:%%%$$,9%o%>9>::",
"$$$$$%:>::%%$$%%,9%o%>9>,,::%$$$$$$$::>,>%oooooooooo#%ooo#%#######oo#%ooo#%#oooooooooooooooo#%>%$%>,:%$$$$%:>>,,::%%$$,9%o%>9>>:",
"$$$$$%:::%%$$$%%,9%o%>9>>>>:%$$$$$$$:>,,>%oooooooooo#%ooo#%#######oo#%ooo#%#ooo####ooooo##oo#%>%$%>,:%$$$$%%:>,,>::%$$,9%o%>9>>:",
"$$$$$%%::%%$$$%%,9%o%>9>:>>:%%$$$$$%:>,>>%$ooooooooo#%ooo#%#######oo#%ooo#%#ooo###oooooo##oo#%>%$%>,:%$$$$%%:>,,>::%%$,9%o%>9>>:",
"$$$$$$%::%$$$$%%,9%o%>9>:>,>:%$$$$$%:>,>:$$ooo#%#o##%>#o#%>%%%%%%%$#%>#o#%>%oo#$%%$##oo#%%oo#%>%$%>,:%$$$$$%:>,,>::%%$,9%o%>9>>:",
"$$$$$$%:%%$$$$%%,9%o%>9>%>,>:%%$$$%:>>,>:$$$$o#%#o##%>#o#%>%%%%%%%$#%>#o#%>%oo#$%%$#ooo#%>#o#%>%o%>,:%$$$$$%::,,>>:%%%,9%o%>9>>:",
"$$$$$$%%%$$$$$%%,9%o%>9>%:>,>:%%$$%:>,,>%$$$$$%>%$%%,9%o%>9>,,,,,>:%,9%o%>9>$$%%::%%$$$%,9%o%>9>$%>,:%$$$$$%%:>>,,:%%%,9%o%>9>>:",
"$$$$$$$%%$$$$$%%,9%o%>9>%:>,>>:%%$%:,,,:%$$$$$%>%$%%,9%o%>9>,,,,,>%%,9%o%>9>$$%%::%%$$$%,9%o%>9>$%>,:%$$$$$$%:>>,,:%%%,9%o%>9>>>",
"%$$$$$$$$$$$$%%%,9%o%>9>$%>>,>>:%%:>,,>:$$$$$$%>%$%%,9%o%>9>,,,,,>%%,9%o%>9>$$$%%%%$$$$%,9%o%>9>$$>>::$$$$$$%::>,,>:%%,9%o%>9>,>",
"%$$$$$$$$$$$$%%%,9%o%>9>$%:>,,>>::>,,,>:$$$$$%:>%$%%,9%o%>9>,,,,,>%%,9%o%>9>$$$%%%%$$$$%,9%o%>9>$$:>::$$$$$$%%:>,,>:%%,9%o%>9>,>",
"%%$$$$$$$$$$$:%%,9%o%>9>$$:>>,,,>>,,,>::$$$$$%:,%$%%,9%o%>9>,,,,>:%%,9%o%>9>$$$$%%$$$$$%,9%o%>9>$$:>>:$$$$$$$%:>,,>:%%,9%o%>9>,>",
"%%$$$$$$$$$$%:%%,9%o%>9>$$%:>,,,,,,,,>:%$$$$$:>,%$%%,9%o%>9>,,,,>:%%,9%o%>9>$$$$$$$$$$$%,9%o%>9>$$:>>:$$$$$$$%::,,>:%%,9%o%>9>,>",
":%$$$$$$$$$$%:%%,9%o%>9>$$%:>>,,,,,,>>%$$$$$$:>,%$%%,9%o%>9>,,,>>:%%,9%o%>9>$$$$$$$$$$$%,9%o%>9>$$:>>:%$$$$$$%%:>>>:%%,9%o%>9>,>",
":%$$$$$$$$$$%>%%,9%o%>9>$$$%>>,,,,,>>:%$$$$$%:>>%$%%,9%o%>9>,,,>>%%%,9%o%>9>$$$$$$$$$$$%,9%o%>9>$$:>>:%$$$$$$$%::>>:%%,9%o%>9>,>",
":%%$$$$$$$$%:>%%,9%o%>9>$$$%:>>>,,>>>:$$$$$$%:>>%$%%,9%o%>9>,,>>:%%%,9%o%>9>$$$$$$$$$$$%,9%o%>9>$$%:>:%$$$$$$$%%:>>:%%,9%o%>9>,>",
"::%$$$$$$$$%:>%%,9%o%>9>$$$$::>>>,>>:%$$$$$$%>,>$$%%,9%o%>9>,,>>:%%%,9%o%>9>$$$$$$$$$$$%,9%o%>9>%$%:>>%$$$$$$$$%%:>:%%,9%o%>9>,>",
">:%%$$$$$$$%:>%%,9%o%>9>$$$$%::>>>>:%$$$$$$$:>,>$$%%,9%o%>9>,>>::$%%,9%o%>9>$$$$$$$$$$%%,9%o%>9>%$%:>>%%$$$$$$$%%:::%%,9%o%>9>,>",
">:%%$$$$$$$%>>%%,9%o%>9>$$$$$%::>>::%$$$$$$%:>,:$$%%,9%o%>9>,>>:%$%%,9%o%>9>$$$$$$$$$$%%,9%o%>9>%$$:>>%%$$$$$$$$%%::%%,9%o%>9>,>",
">::%$$$$$$$%>>%%,9%o%>9>$$$$$$%::::%$$$$$$$%:>,:$$%%,9%o%>9>>>:%$$%%,9%o%>9>$$$$$$$$$$%%,9%o%>9>%$$%:>:%$$$$$$$$$%%:%%,9%o%>9>,>",
">>:%$$$$$$%%>>%%,9%o%>9>$$$$$$$%::%$$$$$$$$%>,>%$$%%,9%o%>9>>:%$$$%%,9%o%>9>$$$$$$$$$$%%,9%o%>9>:$$%:::%$$$$$$$$$$%%%%,9%o%>9>,>",
">>::%$$$$%::>>%%,9%o%>9>$$$$$$$$%%$$$$$$$$%:>>:%$$%%,9%o%>9>:%$$$$%%,9%o%>9>%$$$$$$$$%%%,9%o%>9>:%$$:::%%$$$$$$$$$$%%%,9%o%>9>>>",
">>::%%$$%%::::%%,9%o%>9>%$$$$$$$$$$$$$$$$$%::::$$$%%,9%o%>9>%$$$$$%%,9%o%>9>%%$$$$$$%%%%,9%o%>9>:%$$%:::%$$$$$$$$$$$%%,9%o%>9>>>"
};
